<?xml version="1.0" encoding="UTF-8" standalone="no"?><svg xmlns="http://www.w3.org/2000/svg" xmlns:xlink="http://www.w3.org/1999/xlink" contentScriptType="application/ecmascript" contentStyleType="text/css" height="472px" preserveAspectRatio="none" style="width:772px;height:472px;background:#FFFFFF;" version="1.1" viewBox="0 0 772 472" width="772px" zoomAndPan="magnify"><defs><filter height="300%" id="f121ii2r7hspfz" width="300%" x="-1" y="-1"><feGaussianBlur result="blurOut" stdDeviation="2.0"/><feColorMatrix in="blurOut" result="blurOut2" type="matrix" values="0 0 0 0 0 0 0 0 0 0 0 0 0 0 0 0 0 0 .4 0"/><feOffset dx="4.0" dy="4.0" in="blurOut2" result="blurOut3"/><feBlend in="SourceGraphic" in2="blurOut3" mode="normal"/></filter></defs><g><!--MD5=[90c1263886f4663dd1d5e55102461e87]
class sh:Shape--><rect codeLine="2" fill="#FEFECE" filter="url(#f121ii2r7hspfz)" height="48" id="sh:Shape" style="stroke:#A80036;stroke-width:1.5;" width="85" x="256" y="130"/><ellipse cx="271" cy="146" fill="#ADD1B2" rx="11" ry="11" style="stroke:#A80036;stroke-width:1.0;"/><path d="M273.7656,141.875 Q273.9219,141.6563 274.1094,141.5469 Q274.2969,141.4375 274.5156,141.4375 Q274.8906,141.4375 275.125,141.6953 Q275.3594,141.9531 275.3594,142.5625 L275.3594,144.0156 Q275.3594,144.625 275.125,144.8906 Q274.8906,145.1563 274.5156,145.1563 Q274.1719,145.1563 273.9688,144.9531 Q273.7656,144.7656 273.6563,144.25 Q273.6094,143.8906 273.4219,143.7031 Q273.0938,143.3281 272.4844,143.1094 Q271.875,142.8906 271.25,142.8906 Q270.4844,142.8906 269.8516,143.2188 Q269.2188,143.5469 268.7266,144.2969 Q268.2344,145.0469 268.2344,146.0781 L268.2344,147.1719 Q268.2344,148.4063 269.125,149.2266 Q270.0156,150.0469 271.6094,150.0469 Q272.5469,150.0469 273.2031,149.7969 Q273.5938,149.6406 274.0156,149.2031 Q274.2813,148.9375 274.4297,148.8594 Q274.5781,148.7813 274.7813,148.7813 Q275.1094,148.7813 275.3672,149.0391 Q275.625,149.2969 275.625,149.6406 Q275.625,149.9844 275.2813,150.3906 Q274.7813,150.9688 273.9844,151.2969 Q272.9063,151.75 271.6094,151.75 Q270.0938,151.75 268.8906,151.125 Q267.9063,150.625 267.2188,149.5547 Q266.5313,148.4844 266.5313,147.2031 L266.5313,146.0469 Q266.5313,144.7188 267.1484,143.5703 Q267.7656,142.4219 268.8594,141.8047 Q269.9531,141.1875 271.1875,141.1875 Q271.9219,141.1875 272.5703,141.3516 Q273.2188,141.5156 273.7656,141.875 Z " fill="#000000"/><text fill="#000000" font-family="sans-serif" font-size="12" lengthAdjust="spacing" textLength="53" x="285" y="150.9102">sh:Shape</text><line style="stroke:#A80036;stroke-width:1.5;" x1="257" x2="340" y1="162" y2="162"/><line style="stroke:#A80036;stroke-width:1.5;" x1="257" x2="340" y1="170" y2="170"/><!--MD5=[f5ce388bc7d1e648277699e93003c1c4]
class owl:Class--><rect codeLine="3" fill="#FEFECE" filter="url(#f121ii2r7hspfz)" height="48" id="owl:Class" style="stroke:#A80036;stroke-width:1.5;" width="87" x="358" y="410"/><ellipse cx="373" cy="426" fill="#ADD1B2" rx="11" ry="11" style="stroke:#A80036;stroke-width:1.0;"/><path d="M375.7656,421.875 Q375.9219,421.6563 376.1094,421.5469 Q376.2969,421.4375 376.5156,421.4375 Q376.8906,421.4375 377.125,421.6953 Q377.3594,421.9531 377.3594,422.5625 L377.3594,424.0156 Q377.3594,424.625 377.125,424.8906 Q376.8906,425.1563 376.5156,425.1563 Q376.1719,425.1563 375.9688,424.9531 Q375.7656,424.7656 375.6563,424.25 Q375.6094,423.8906 375.4219,423.7031 Q375.0938,423.3281 374.4844,423.1094 Q373.875,422.8906 373.25,422.8906 Q372.4844,422.8906 371.8516,423.2188 Q371.2188,423.5469 370.7266,424.2969 Q370.2344,425.0469 370.2344,426.0781 L370.2344,427.1719 Q370.2344,428.4063 371.125,429.2266 Q372.0156,430.0469 373.6094,430.0469 Q374.5469,430.0469 375.2031,429.7969 Q375.5938,429.6406 376.0156,429.2031 Q376.2813,428.9375 376.4297,428.8594 Q376.5781,428.7813 376.7813,428.7813 Q377.1094,428.7813 377.3672,429.0391 Q377.625,429.2969 377.625,429.6406 Q377.625,429.9844 377.2813,430.3906 Q376.7813,430.9688 375.9844,431.2969 Q374.9063,431.75 373.6094,431.75 Q372.0938,431.75 370.8906,431.125 Q369.9063,430.625 369.2188,429.5547 Q368.5313,428.4844 368.5313,427.2031 L368.5313,426.0469 Q368.5313,424.7188 369.1484,423.5703 Q369.7656,422.4219 370.8594,421.8047 Q371.9531,421.1875 373.1875,421.1875 Q373.9219,421.1875 374.5703,421.3516 Q375.2188,421.5156 375.7656,421.875 Z " fill="#000000"/><text fill="#000000" font-family="sans-serif" font-size="12" lengthAdjust="spacing" textLength="55" x="387" y="430.9102">owl:Class</text><line style="stroke:#A80036;stroke-width:1.5;" x1="359" x2="444" y1="442" y2="442"/><line style="stroke:#A80036;stroke-width:1.5;" x1="359" x2="444" y1="450" y2="450"/><!--MD5=[d36f1775696a457d48147f8528ae6586]
class sh:NodeShape--><rect codeLine="4" fill="#FEFECE" filter="url(#f121ii2r7hspfz)" height="48" id="sh:NodeShape" style="stroke:#A80036;stroke-width:1.5;" width="115" x="7" y="270"/><ellipse cx="22" cy="286" fill="#ADD1B2" rx="11" ry="11" style="stroke:#A80036;stroke-width:1.0;"/><path d="M24.7656,281.875 Q24.9219,281.6563 25.1094,281.5469 Q25.2969,281.4375 25.5156,281.4375 Q25.8906,281.4375 26.125,281.6953 Q26.3594,281.9531 26.3594,282.5625 L26.3594,284.0156 Q26.3594,284.625 26.125,284.8906 Q25.8906,285.1563 25.5156,285.1563 Q25.1719,285.1563 24.9688,284.9531 Q24.7656,284.7656 24.6563,284.25 Q24.6094,283.8906 24.4219,283.7031 Q24.0938,283.3281 23.4844,283.1094 Q22.875,282.8906 22.25,282.8906 Q21.4844,282.8906 20.8516,283.2188 Q20.2188,283.5469 19.7266,284.2969 Q19.2344,285.0469 19.2344,286.0781 L19.2344,287.1719 Q19.2344,288.4063 20.125,289.2266 Q21.0156,290.0469 22.6094,290.0469 Q23.5469,290.0469 24.2031,289.7969 Q24.5938,289.6406 25.0156,289.2031 Q25.2813,288.9375 25.4297,288.8594 Q25.5781,288.7813 25.7813,288.7813 Q26.1094,288.7813 26.3672,289.0391 Q26.625,289.2969 26.625,289.6406 Q26.625,289.9844 26.2813,290.3906 Q25.7813,290.9688 24.9844,291.2969 Q23.9063,291.75 22.6094,291.75 Q21.0938,291.75 19.8906,291.125 Q18.9063,290.625 18.2188,289.5547 Q17.5313,288.4844 17.5313,287.2031 L17.5313,286.0469 Q17.5313,284.7188 18.1484,283.5703 Q18.7656,282.4219 19.8594,281.8047 Q20.9531,281.1875 22.1875,281.1875 Q22.9219,281.1875 23.5703,281.3516 Q24.2188,281.5156 24.7656,281.875 Z " fill="#000000"/><text fill="#000000" font-family="sans-serif" font-size="12" lengthAdjust="spacing" textLength="83" x="36" y="290.9102">sh:NodeShape</text><line style="stroke:#A80036;stroke-width:1.5;" x1="8" x2="121" y1="302" y2="302"/><line style="stroke:#A80036;stroke-width:1.5;" x1="8" x2="121" y1="310" y2="310"/><!--MD5=[343ed68f36560b8702214b37b3e3f531]
class rdfs:Datatype--><rect codeLine="5" fill="#FEFECE" filter="url(#f121ii2r7hspfz)" height="48" id="rdfs:Datatype" style="stroke:#A80036;stroke-width:1.5;" width="104" x="581.5" y="270"/><ellipse cx="596.5" cy="286" fill="#ADD1B2" rx="11" ry="11" style="stroke:#A80036;stroke-width:1.0;"/><path d="M599.2656,281.875 Q599.4219,281.6563 599.6094,281.5469 Q599.7969,281.4375 600.0156,281.4375 Q600.3906,281.4375 600.625,281.6953 Q600.8594,281.9531 600.8594,282.5625 L600.8594,284.0156 Q600.8594,284.625 600.625,284.8906 Q600.3906,285.1563 600.0156,285.1563 Q599.6719,285.1563 599.4688,284.9531 Q599.2656,284.7656 599.1563,284.25 Q599.1094,283.8906 598.9219,283.7031 Q598.5938,283.3281 597.9844,283.1094 Q597.375,282.8906 596.75,282.8906 Q595.9844,282.8906 595.3516,283.2188 Q594.7188,283.5469 594.2266,284.2969 Q593.7344,285.0469 593.7344,286.0781 L593.7344,287.1719 Q593.7344,288.4063 594.625,289.2266 Q595.5156,290.0469 597.1094,290.0469 Q598.0469,290.0469 598.7031,289.7969 Q599.0938,289.6406 599.5156,289.2031 Q599.7813,288.9375 599.9297,288.8594 Q600.0781,288.7813 600.2813,288.7813 Q600.6094,288.7813 600.8672,289.0391 Q601.125,289.2969 601.125,289.6406 Q601.125,289.9844 600.7813,290.3906 Q600.2813,290.9688 599.4844,291.2969 Q598.4063,291.75 597.1094,291.75 Q595.5938,291.75 594.3906,291.125 Q593.4063,290.625 592.7188,289.5547 Q592.0313,288.4844 592.0313,287.2031 L592.0313,286.0469 Q592.0313,284.7188 592.6484,283.5703 Q593.2656,282.4219 594.3594,281.8047 Q595.4531,281.1875 596.6875,281.1875 Q597.4219,281.1875 598.0703,281.3516 Q598.7188,281.5156 599.2656,281.875 Z " fill="#000000"/><text fill="#000000" font-family="sans-serif" font-size="12" lengthAdjust="spacing" textLength="72" x="610.5" y="290.9102">rdfs:Datatype</text><line style="stroke:#A80036;stroke-width:1.5;" x1="582.5" x2="684.5" y1="302" y2="302"/><line style="stroke:#A80036;stroke-width:1.5;" x1="582.5" x2="684.5" y1="310" y2="310"/><!--MD5=[cfc5005d1fab0c9984795eb186ae2155]
class sh:PropertyShape--><rect codeLine="6" fill="#FEFECE" filter="url(#f121ii2r7hspfz)" height="75.6719" id="sh:PropertyShape" style="stroke:#A80036;stroke-width:1.5;" width="149" x="224" y="256"/><ellipse cx="247.55" cy="272" fill="#ADD1B2" rx="11" ry="11" style="stroke:#A80036;stroke-width:1.0;"/><path d="M250.3156,267.875 Q250.4719,267.6563 250.6594,267.5469 Q250.8469,267.4375 251.0656,267.4375 Q251.4406,267.4375 251.675,267.6953 Q251.9094,267.9531 251.9094,268.5625 L251.9094,270.0156 Q251.9094,270.625 251.675,270.8906 Q251.4406,271.1563 251.0656,271.1563 Q250.7219,271.1563 250.5188,270.9531 Q250.3156,270.7656 250.2063,270.25 Q250.1594,269.8906 249.9719,269.7031 Q249.6438,269.3281 249.0344,269.1094 Q248.425,268.8906 247.8,268.8906 Q247.0344,268.8906 246.4016,269.2188 Q245.7688,269.5469 245.2766,270.2969 Q244.7844,271.0469 244.7844,272.0781 L244.7844,273.1719 Q244.7844,274.4063 245.675,275.2266 Q246.5656,276.0469 248.1594,276.0469 Q249.0969,276.0469 249.7531,275.7969 Q250.1438,275.6406 250.5656,275.2031 Q250.8313,274.9375 250.9797,274.8594 Q251.1281,274.7813 251.3313,274.7813 Q251.6594,274.7813 251.9172,275.0391 Q252.175,275.2969 252.175,275.6406 Q252.175,275.9844 251.8313,276.3906 Q251.3313,276.9688 250.5344,277.2969 Q249.4563,277.75 248.1594,277.75 Q246.6438,277.75 245.4406,277.125 Q244.4563,276.625 243.7688,275.5547 Q243.0813,274.4844 243.0813,273.2031 L243.0813,272.0469 Q243.0813,270.7188 243.6984,269.5703 Q244.3156,268.4219 245.4094,267.8047 Q246.5031,267.1875 247.7375,267.1875 Q248.4719,267.1875 249.1203,267.3516 Q249.7688,267.5156 250.3156,267.875 Z " fill="#000000"/><text fill="#000000" font-family="sans-serif" font-size="12" lengthAdjust="spacing" textLength="98" x="263.45" y="276.9102">sh:PropertyShape</text><line style="stroke:#A80036;stroke-width:1.5;" x1="225" x2="372" y1="288" y2="288"/><text fill="#000000" font-family="sans-serif" font-size="11" lengthAdjust="spacing" textLength="133" x="230" y="303.4189">sh:minCount :  "xsd:integer"</text><text fill="#000000" font-family="sans-serif" font-size="11" lengthAdjust="spacing" textLength="137" x="230" y="317.2549">sh:maxCount :  "xsd:integer"</text><line style="stroke:#A80036;stroke-width:1.5;" x1="225" x2="372" y1="323.6719" y2="323.6719"/><!--MD5=[a0e5ab1fe18887224d30a03db556b5a7]
class rdf:List--><rect codeLine="10" fill="#FEFECE" filter="url(#f121ii2r7hspfz)" height="48" id="rdf:List" style="stroke:#A80036;stroke-width:1.5;" width="69" x="532" y="130"/><ellipse cx="547" cy="146" fill="#ADD1B2" rx="11" ry="11" style="stroke:#A80036;stroke-width:1.0;"/><path d="M549.7656,141.875 Q549.9219,141.6563 550.1094,141.5469 Q550.2969,141.4375 550.5156,141.4375 Q550.8906,141.4375 551.125,141.6953 Q551.3594,141.9531 551.3594,142.5625 L551.3594,144.0156 Q551.3594,144.625 551.125,144.8906 Q550.8906,145.1563 550.5156,145.1563 Q550.1719,145.1563 549.9688,144.9531 Q549.7656,144.7656 549.6563,144.25 Q549.6094,143.8906 549.4219,143.7031 Q549.0938,143.3281 548.4844,143.1094 Q547.875,142.8906 547.25,142.8906 Q546.4844,142.8906 545.8516,143.2188 Q545.2188,143.5469 544.7266,144.2969 Q544.2344,145.0469 544.2344,146.0781 L544.2344,147.1719 Q544.2344,148.4063 545.125,149.2266 Q546.0156,150.0469 547.6094,150.0469 Q548.5469,150.0469 549.2031,149.7969 Q549.5938,149.6406 550.0156,149.2031 Q550.2813,148.9375 550.4297,148.8594 Q550.5781,148.7813 550.7813,148.7813 Q551.1094,148.7813 551.3672,149.0391 Q551.625,149.2969 551.625,149.6406 Q551.625,149.9844 551.2813,150.3906 Q550.7813,150.9688 549.9844,151.2969 Q548.9063,151.75 547.6094,151.75 Q546.0938,151.75 544.8906,151.125 Q543.9063,150.625 543.2188,149.5547 Q542.5313,148.4844 542.5313,147.2031 L542.5313,146.0469 Q542.5313,144.7188 543.1484,143.5703 Q543.7656,142.4219 544.8594,141.8047 Q545.9531,141.1875 547.1875,141.1875 Q547.9219,141.1875 548.5703,141.3516 Q549.2188,141.5156 549.7656,141.875 Z " fill="#000000"/><text fill="#000000" font-family="sans-serif" font-size="12" lengthAdjust="spacing" textLength="37" x="561" y="150.9102">rdf:List</text><line style="stroke:#A80036;stroke-width:1.5;" x1="533" x2="600" y1="162" y2="162"/><line style="stroke:#A80036;stroke-width:1.5;" x1="533" x2="600" y1="170" y2="170"/><!--MD5=[f5d6fba28c9acdd96eb01d07ddcb0e48]
class rdf:Property--><rect codeLine="11" fill="#FEFECE" filter="url(#f121ii2r7hspfz)" height="48" id="rdf:Property" style="stroke:#A80036;stroke-width:1.5;" width="94" x="452.5" y="270"/><ellipse cx="467.5" cy="286" fill="#ADD1B2" rx="11" ry="11" style="stroke:#A80036;stroke-width:1.0;"/><path d="M470.2656,281.875 Q470.4219,281.6563 470.6094,281.5469 Q470.7969,281.4375 471.0156,281.4375 Q471.3906,281.4375 471.625,281.6953 Q471.8594,281.9531 471.8594,282.5625 L471.8594,284.0156 Q471.8594,284.625 471.625,284.8906 Q471.3906,285.1563 471.0156,285.1563 Q470.6719,285.1563 470.4688,284.9531 Q470.2656,284.7656 470.1563,284.25 Q470.1094,283.8906 469.9219,283.7031 Q469.5938,283.3281 468.9844,283.1094 Q468.375,282.8906 467.75,282.8906 Q466.9844,282.8906 466.3516,283.2188 Q465.7188,283.5469 465.2266,284.2969 Q464.7344,285.0469 464.7344,286.0781 L464.7344,287.1719 Q464.7344,288.4063 465.625,289.2266 Q466.5156,290.0469 468.1094,290.0469 Q469.0469,290.0469 469.7031,289.7969 Q470.0938,289.6406 470.5156,289.2031 Q470.7813,288.9375 470.9297,288.8594 Q471.0781,288.7813 471.2813,288.7813 Q471.6094,288.7813 471.8672,289.0391 Q472.125,289.2969 472.125,289.6406 Q472.125,289.9844 471.7813,290.3906 Q471.2813,290.9688 470.4844,291.2969 Q469.4063,291.75 468.1094,291.75 Q466.5938,291.75 465.3906,291.125 Q464.4063,290.625 463.7188,289.5547 Q463.0313,288.4844 463.0313,287.2031 L463.0313,286.0469 Q463.0313,284.7188 463.6484,283.5703 Q464.2656,282.4219 465.3594,281.8047 Q466.4531,281.1875 467.6875,281.1875 Q468.4219,281.1875 469.0703,281.3516 Q469.7188,281.5156 470.2656,281.875 Z " fill="#000000"/><text fill="#000000" font-family="sans-serif" font-size="12" lengthAdjust="spacing" textLength="62" x="481.5" y="290.9102">rdf:Property</text><line style="stroke:#A80036;stroke-width:1.5;" x1="453.5" x2="545.5" y1="302" y2="302"/><line style="stroke:#A80036;stroke-width:1.5;" x1="453.5" x2="545.5" y1="310" y2="310"/><!--MD5=[f071ecb23dbf121833784480fda18997]
class owl:Thing--><rect codeLine="12" fill="#FEFECE" filter="url(#f121ii2r7hspfz)" height="61.8359" id="owl:Thing" style="stroke:#A80036;stroke-width:1.5;" width="143" x="495" y="7"/><ellipse cx="536.55" cy="23" fill="#A9DCDF" rx="11" ry="11" style="stroke:#A80036;stroke-width:1.0;"/><path d="M538.7375,24.7656 L534.5969,24.7656 L534.175,25.7969 L534.5969,25.7969 Q535.2063,25.7969 535.4719,26.0313 Q535.7375,26.2656 535.7375,26.6563 Q535.7375,27.0313 535.4719,27.2656 Q535.2063,27.5 534.5969,27.5 L532.3,27.5 Q531.6906,27.5 531.4328,27.2656 Q531.175,27.0313 531.175,26.6406 Q531.175,26.2656 531.4484,26.0234 Q531.7219,25.7813 532.3469,25.7969 L535.0188,19.1406 L533.9094,19.1406 Q533.3,19.1406 533.0344,18.9063 Q532.7688,18.6719 532.7688,18.2813 Q532.7688,17.9063 533.0344,17.6719 Q533.3,17.4375 533.9094,17.4375 L537.5813,17.4375 L540.9719,25.7969 Q541.5656,25.7969 541.7531,25.9375 Q542.1438,26.2031 542.1438,26.6563 Q542.1438,27.0313 541.8859,27.2656 Q541.6281,27.5 541.0188,27.5 L538.7219,27.5 Q538.1125,27.5 537.8469,27.2656 Q537.5813,27.0313 537.5813,26.6406 Q537.5813,26.2656 537.8469,26.0313 Q538.1125,25.7969 538.7219,25.7969 L539.1438,25.7969 L538.7375,24.7656 Z M538.0188,23.0625 L536.6594,19.6875 L535.2844,23.0625 L538.0188,23.0625 Z " fill="#000000"/><text fill="#000000" font-family="sans-serif" font-size="12" font-style="italic" lengthAdjust="spacing" textLength="52" x="556.45" y="27.9102">owl:Thing</text><line style="stroke:#A80036;stroke-width:1.5;" x1="496" x2="637" y1="39" y2="39"/><text fill="#000000" font-family="sans-serif" font-size="11" lengthAdjust="spacing" textLength="131" x="501" y="54.4189">rdfs:comment : "xsd:string"</text><line style="stroke:#A80036;stroke-width:1.5;" x1="496" x2="637" y1="60.8359" y2="60.8359"/><!--MD5=[82a2fb0b8383334e3120e71dd411f7e5]
reverse link owl:Thing to rdf:Property--><path codeLine="16" d="M534.37,86.38 C526.61,99.93 519.2,115.09 514.5,130 C499.33,178.11 497.99,237.87 498.59,269.99 " fill="none" id="owl:Thing-backto-rdf:Property" style="stroke:#A80036;stroke-width:1.0;"/><polygon fill="none" points="528.55,82.47,544.96,69.06,540.5,89.77,528.55,82.47" style="stroke:#A80036;stroke-width:1.0;"/><!--MD5=[5b368d0abc5ecfbb61460481483f6cd9]
reverse link owl:Thing to rdfs:Datatype--><path codeLine="18" d="M598.63,86.38 C606.39,99.93 613.8,115.09 618.5,130 C633.67,178.11 635.01,237.87 634.41,269.99 " fill="none" id="owl:Thing-backto-rdfs:Datatype" style="stroke:#A80036;stroke-width:1.0;"/><polygon fill="none" points="592.5,89.77,588.04,69.06,604.45,82.47,592.5,89.77" style="stroke:#A80036;stroke-width:1.0;"/><!--MD5=[c455f6ae9c81bdc59bce2d120c13bf9c]
reverse link owl:Thing to sh:Shape--><path codeLine="19" d="M477.29,76.95 C431.43,96.46 377.65,119.33 341.14,134.86 " fill="none" id="owl:Thing-backto-sh:Shape" style="stroke:#A80036;stroke-width:1.0;"/><polygon fill="none" points="474.59,70.49,495.74,69.1,480.07,83.37,474.59,70.49" style="stroke:#A80036;stroke-width:1.0;"/><!--MD5=[7cf1be3a8858e2d91874fed0b1885c9d]
reverse link owl:Thing to owl:Class--><path codeLine="20" d="M618.22,83.09 C623.27,88.24 628.13,93.6 632.5,99 C700.45,183.11 765.64,244.22 702.5,332 C643.2,414.45 513.34,430.53 445.2,433.08 " fill="none" id="owl:Thing-backto-owl:Class" style="stroke:#A80036;stroke-width:1.0;"/><polygon fill="none" points="613.34,88.11,603.74,69.22,623.03,78,613.34,88.11" style="stroke:#A80036;stroke-width:1.0;"/><!--MD5=[5cd125ded56517fa3b56f2feac6652e7]
reverse link owl:Thing to rdf:List--><path codeLine="21" d="M566.5,89.69 C566.5,103.71 566.5,118.24 566.5,129.84 " fill="none" id="owl:Thing-backto-rdf:List" style="stroke:#A80036;stroke-width:1.0;"/><polygon fill="none" points="559.5,89.25,566.5,69.25,573.5,89.25,559.5,89.25" style="stroke:#A80036;stroke-width:1.0;"/><!--MD5=[1b2e11ef85f816067562fcc57ada6501]
reverse link sh:Shape to sh:NodeShape--><path codeLine="23" d="M242.02,188.31 C199.27,213.52 141.63,247.51 103.79,269.83 " fill="none" id="sh:Shape-backto-sh:NodeShape" style="stroke:#A80036;stroke-width:1.0;"/><polygon fill="none" points="238.55,182.23,259.33,178.1,245.66,194.29,238.55,182.23" style="stroke:#A80036;stroke-width:1.0;"/><!--MD5=[ad56d924659c96acad3afa1bc6398687]
reverse link sh:Shape to sh:PropertyShape--><path codeLine="24" d="M298.5,198.38 C298.5,216.81 298.5,238.07 298.5,255.77 " fill="none" id="sh:Shape-backto-sh:PropertyShape" style="stroke:#A80036;stroke-width:1.0;"/><polygon fill="none" points="291.5,198.1,298.5,178.1,305.5,198.1,291.5,198.1" style="stroke:#A80036;stroke-width:1.0;"/><!--MD5=[4e3a108e788e26f45da19d424d0e90e3]
link sh:NodeShape to sh:PropertyShape--><path codeLine="26" d="M122.04,294 C151.2,294 187.07,294 218.84,294 " fill="none" id="sh:NodeShape-to-sh:PropertyShape" style="stroke:#A80036;stroke-width:1.0;"/><polygon fill="#A80036" points="223.9,294,214.9,290,218.9,294,214.9,298,223.9,294" style="stroke:#A80036;stroke-width:1.0;"/><text fill="#000000" font-family="sans-serif" font-size="13" lengthAdjust="spacing" textLength="65" x="140.5" y="287.4951">sh:property</text><!--MD5=[408f821662ce3b91f8e4178c5b1fd6ce]
link sh:PropertyShape to sh:NodeShape--><path codeLine="30" d="M223.66,312.24 C199.82,315.98 173.32,317.98 149,315 C141.93,314.13 134.6,312.88 127.34,311.4 " fill="none" id="sh:PropertyShape-to-sh:NodeShape" style="stroke:#A80036;stroke-width:1.0;"/><polygon fill="#A80036" points="122.34,310.34,130.3263,316.1036,127.2334,311.3672,131.9698,308.2742,122.34,310.34" style="stroke:#A80036;stroke-width:1.0;"/><text fill="#000000" font-family="sans-serif" font-size="13" lengthAdjust="spacing" textLength="46" x="150" y="311.4951">sh:node</text><!--MD5=[9bd24bd7a8fa4337f416991721bf0d4f]
link sh:NodeShape to owl:Class--><path codeLine="27" d="M120.91,318.1 C185.92,344.72 291.67,388.03 353.1,413.18 " fill="none" id="sh:NodeShape-to-owl:Class" style="stroke:#A80036;stroke-width:1.0;"/><polygon fill="#A80036" points="357.8,415.11,350.9932,407.9919,353.1745,413.2113,347.9552,415.3927,357.8,415.11" style="stroke:#A80036;stroke-width:1.0;"/><text fill="#000000" font-family="sans-serif" font-size="13" lengthAdjust="spacing" textLength="84" x="264.5" y="376.4951">sh:targetClass</text><!--MD5=[5557b04a14f6184ae937e157a50ff770]
link sh:PropertyShape to rdf:Property--><path codeLine="28" d="M373.06,294 C397.78,294 424.75,294 447.4,294 " fill="none" id="sh:PropertyShape-to-rdf:Property" style="stroke:#A80036;stroke-width:1.0;"/><polygon fill="#A80036" points="452.47,294,443.47,290,447.47,294,443.47,298,452.47,294" style="stroke:#A80036;stroke-width:1.0;"/><text fill="#000000" font-family="sans-serif" font-size="13" lengthAdjust="spacing" textLength="43" x="391.25" y="287.4951">sh:path</text><!--MD5=[8f3807065019a6dcf0a294a982849dfb]
link sh:Shape to rdf:List--><path codeLine="29" d="M341.26,154 C392.31,154 476.99,154 526.7,154 " fill="none" id="sh:Shape-to-rdf:List" style="stroke:#A80036;stroke-width:1.0;"/><polygon fill="#A80036" points="531.99,154,522.99,150,526.99,154,522.99,158,531.99,154" style="stroke:#A80036;stroke-width:1.0;"/><text fill="#000000" font-family="sans-serif" font-size="13" lengthAdjust="spacing" textLength="28" x="422.5" y="147.4951">sh:in</text><!--MD5=[908823a91339f7f4e3b83348c3663c85]
link sh:PropertyShape to rdfs:Datatype--><path codeLine="31" d="M328.72,255.87 C342.26,241.78 359.47,227.45 378.5,220 C453.08,190.79 543.89,235.33 594.55,266.95 " fill="none" id="sh:PropertyShape-to-rdfs:Datatype" style="stroke:#A80036;stroke-width:1.0;"/><polygon fill="#A80036" points="599.02,269.78,593.5476,261.5914,594.7929,267.1095,589.2748,268.3548,599.02,269.78" style="stroke:#A80036;stroke-width:1.0;"/><text fill="#000000" font-family="sans-serif" font-size="13" lengthAdjust="spacing" textLength="68" x="379.5" y="222.4951">sh:datatype</text><!--MD5=[dbda09b25ede035163e076dcc8fd9524]
@startuml ConstraintDiagram

class "sh:Shape"
class "owl:Class"
class "sh:NodeShape" 
class "rdfs:Datatype"
class "sh:PropertyShape" {
    sh:minCount :  "xsd:integer"
    sh:maxCount :  "xsd:integer"
}
class "rdf:List" 
class "rdf:Property" 
abstract class "owl:Thing" { 
 rdfs:comment : "xsd:string" 
}

"owl:Thing" <|- -  "rdf:Property"

"owl:Thing" <|- -  "rdfs:Datatype"
"owl:Thing" <|- -  "sh:Shape"
"owl:Thing" <|- -  "owl:Class"
"owl:Thing" <|- -  "rdf:List"

"sh:Shape" <|- -   "sh:NodeShape"
"sh:Shape" <|- -   "sh:PropertyShape"

"sh:NodeShape" - -> "sh:PropertyShape" : "sh:property"
"sh:NodeShape" - -> "owl:Class" : "sh:targetClass"
"sh:PropertyShape" -> "rdf:Property" : "sh:path"
"sh:Shape" -> "rdf:List" : "sh:in"
"sh:PropertyShape" -> "sh:NodeShape" : "sh:node"
"sh:PropertyShape" -> "rdfs:Datatype" : "sh:datatype"


@enduml

PlantUML version 1.2021.7(Sun May 23 14:40:07 CEST 2021)
(GPL source distribution)
Java Runtime: Java(TM) SE Runtime Environment
JVM: Java HotSpot(TM) 64-Bit Server VM
Default Encoding: Cp1252
Language: nl
Country: NL
--></g></svg>