<?xml version="1.0" encoding="UTF-8" standalone="no"?><svg xmlns="http://www.w3.org/2000/svg" xmlns:xlink="http://www.w3.org/1999/xlink" contentScriptType="application/ecmascript" contentStyleType="text/css" height="472px" preserveAspectRatio="none" style="width:869px;height:472px;background:#FFFFFF;" version="1.1" viewBox="0 0 869 472" width="869px" zoomAndPan="magnify"><defs><filter height="300%" id="f18wfo11r9w1i7" width="300%" x="-1" y="-1"><feGaussianBlur result="blurOut" stdDeviation="2.0"/><feColorMatrix in="blurOut" result="blurOut2" type="matrix" values="0 0 0 0 0 0 0 0 0 0 0 0 0 0 0 0 0 0 .4 0"/><feOffset dx="4.0" dy="4.0" in="blurOut2" result="blurOut3"/><feBlend in="SourceGraphic" in2="blurOut3" mode="normal"/></filter></defs><g><!--MD5=[90c1263886f4663dd1d5e55102461e87]
class sh:Shape--><rect codeLine="2" fill="#FEFECE" filter="url(#f18wfo11r9w1i7)" height="48" id="sh:Shape" style="stroke:#A80036;stroke-width:1.5;" width="84" x="179.64" y="130"/><ellipse cx="194.64" cy="146" fill="#A9DCDF" rx="11" ry="11" style="stroke:#A80036;stroke-width:1.0;"/><path d="M196.8275,147.7656 L192.6869,147.7656 L192.265,148.7969 L192.6869,148.7969 Q193.2963,148.7969 193.5619,149.0313 Q193.8275,149.2656 193.8275,149.6563 Q193.8275,150.0313 193.5619,150.2656 Q193.2963,150.5 192.6869,150.5 L190.39,150.5 Q189.7806,150.5 189.5228,150.2656 Q189.265,150.0313 189.265,149.6406 Q189.265,149.2656 189.5384,149.0234 Q189.8119,148.7813 190.4369,148.7969 L193.1088,142.1406 L191.9994,142.1406 Q191.39,142.1406 191.1244,141.9063 Q190.8588,141.6719 190.8588,141.2813 Q190.8588,140.9063 191.1244,140.6719 Q191.39,140.4375 191.9994,140.4375 L195.6713,140.4375 L199.0619,148.7969 Q199.6556,148.7969 199.8431,148.9375 Q200.2338,149.2031 200.2338,149.6563 Q200.2338,150.0313 199.9759,150.2656 Q199.7181,150.5 199.1088,150.5 L196.8119,150.5 Q196.2025,150.5 195.9369,150.2656 Q195.6713,150.0313 195.6713,149.6406 Q195.6713,149.2656 195.9369,149.0313 Q196.2025,148.7969 196.8119,148.7969 L197.2338,148.7969 L196.8275,147.7656 Z M196.1088,146.0625 L194.7494,142.6875 L193.3744,146.0625 L196.1088,146.0625 Z " fill="#000000"/><text fill="#000000" font-family="sans-serif" font-size="12" font-style="italic" lengthAdjust="spacing" textLength="52" x="208.64" y="150.9102">sh:Shape</text><line style="stroke:#A80036;stroke-width:1.5;" x1="180.64" x2="262.64" y1="162" y2="162"/><line style="stroke:#A80036;stroke-width:1.5;" x1="180.64" x2="262.64" y1="170" y2="170"/><!--MD5=[f5ce388bc7d1e648277699e93003c1c4]
class owl:Class--><rect codeLine="3" fill="#FEFECE" filter="url(#f18wfo11r9w1i7)" height="48" id="owl:Class" style="stroke:#A80036;stroke-width:1.5;" width="87" x="268.14" y="410"/><ellipse cx="283.14" cy="426" fill="#ADD1B2" rx="11" ry="11" style="stroke:#A80036;stroke-width:1.0;"/><path d="M285.9056,421.875 Q286.0619,421.6563 286.2494,421.5469 Q286.4369,421.4375 286.6556,421.4375 Q287.0306,421.4375 287.265,421.6953 Q287.4994,421.9531 287.4994,422.5625 L287.4994,424.0156 Q287.4994,424.625 287.265,424.8906 Q287.0306,425.1563 286.6556,425.1563 Q286.3119,425.1563 286.1088,424.9531 Q285.9056,424.7656 285.7963,424.25 Q285.7494,423.8906 285.5619,423.7031 Q285.2338,423.3281 284.6244,423.1094 Q284.015,422.8906 283.39,422.8906 Q282.6244,422.8906 281.9916,423.2188 Q281.3588,423.5469 280.8666,424.2969 Q280.3744,425.0469 280.3744,426.0781 L280.3744,427.1719 Q280.3744,428.4063 281.265,429.2266 Q282.1556,430.0469 283.7494,430.0469 Q284.6869,430.0469 285.3431,429.7969 Q285.7338,429.6406 286.1556,429.2031 Q286.4213,428.9375 286.5697,428.8594 Q286.7181,428.7813 286.9213,428.7813 Q287.2494,428.7813 287.5072,429.0391 Q287.765,429.2969 287.765,429.6406 Q287.765,429.9844 287.4213,430.3906 Q286.9213,430.9688 286.1244,431.2969 Q285.0463,431.75 283.7494,431.75 Q282.2338,431.75 281.0306,431.125 Q280.0463,430.625 279.3588,429.5547 Q278.6713,428.4844 278.6713,427.2031 L278.6713,426.0469 Q278.6713,424.7188 279.2884,423.5703 Q279.9056,422.4219 280.9994,421.8047 Q282.0931,421.1875 283.3275,421.1875 Q284.0619,421.1875 284.7103,421.3516 Q285.3588,421.5156 285.9056,421.875 Z " fill="#000000"/><text fill="#000000" font-family="sans-serif" font-size="12" lengthAdjust="spacing" textLength="55" x="297.14" y="430.9102">owl:Class</text><line style="stroke:#A80036;stroke-width:1.5;" x1="269.14" x2="354.14" y1="442" y2="442"/><line style="stroke:#A80036;stroke-width:1.5;" x1="269.14" x2="354.14" y1="450" y2="450"/><!--MD5=[a0e5ab1fe18887224d30a03db556b5a7]
class rdf:List--><rect codeLine="4" fill="#FEFECE" filter="url(#f18wfo11r9w1i7)" height="48" id="rdf:List" style="stroke:#A80036;stroke-width:1.5;" width="69" x="94.14" y="410"/><ellipse cx="109.14" cy="426" fill="#ADD1B2" rx="11" ry="11" style="stroke:#A80036;stroke-width:1.0;"/><path d="M111.9056,421.875 Q112.0619,421.6563 112.2494,421.5469 Q112.4369,421.4375 112.6556,421.4375 Q113.0306,421.4375 113.265,421.6953 Q113.4994,421.9531 113.4994,422.5625 L113.4994,424.0156 Q113.4994,424.625 113.265,424.8906 Q113.0306,425.1563 112.6556,425.1563 Q112.3119,425.1563 112.1087,424.9531 Q111.9056,424.7656 111.7962,424.25 Q111.7494,423.8906 111.5619,423.7031 Q111.2337,423.3281 110.6244,423.1094 Q110.015,422.8906 109.39,422.8906 Q108.6244,422.8906 107.9916,423.2188 Q107.3587,423.5469 106.8666,424.2969 Q106.3744,425.0469 106.3744,426.0781 L106.3744,427.1719 Q106.3744,428.4063 107.265,429.2266 Q108.1556,430.0469 109.7494,430.0469 Q110.6869,430.0469 111.3431,429.7969 Q111.7337,429.6406 112.1556,429.2031 Q112.4212,428.9375 112.5697,428.8594 Q112.7181,428.7813 112.9212,428.7813 Q113.2494,428.7813 113.5072,429.0391 Q113.765,429.2969 113.765,429.6406 Q113.765,429.9844 113.4212,430.3906 Q112.9212,430.9688 112.1244,431.2969 Q111.0462,431.75 109.7494,431.75 Q108.2337,431.75 107.0306,431.125 Q106.0462,430.625 105.3587,429.5547 Q104.6712,428.4844 104.6712,427.2031 L104.6712,426.0469 Q104.6712,424.7188 105.2884,423.5703 Q105.9056,422.4219 106.9994,421.8047 Q108.0931,421.1875 109.3275,421.1875 Q110.0619,421.1875 110.7103,421.3516 Q111.3587,421.5156 111.9056,421.875 Z " fill="#000000"/><text fill="#000000" font-family="sans-serif" font-size="12" lengthAdjust="spacing" textLength="37" x="123.14" y="430.9102">rdf:List</text><line style="stroke:#A80036;stroke-width:1.5;" x1="95.14" x2="162.14" y1="442" y2="442"/><line style="stroke:#A80036;stroke-width:1.5;" x1="95.14" x2="162.14" y1="450" y2="450"/><!--MD5=[d36f1775696a457d48147f8528ae6586]
class sh:NodeShape--><rect codeLine="5" fill="#FEFECE" filter="url(#f18wfo11r9w1i7)" height="48" id="sh:NodeShape" style="stroke:#A80036;stroke-width:1.5;" width="115" x="71.14" y="270"/><ellipse cx="86.14" cy="286" fill="#ADD1B2" rx="11" ry="11" style="stroke:#A80036;stroke-width:1.0;"/><path d="M88.9056,281.875 Q89.0619,281.6563 89.2494,281.5469 Q89.4369,281.4375 89.6556,281.4375 Q90.0306,281.4375 90.265,281.6953 Q90.4994,281.9531 90.4994,282.5625 L90.4994,284.0156 Q90.4994,284.625 90.265,284.8906 Q90.0306,285.1563 89.6556,285.1563 Q89.3119,285.1563 89.1088,284.9531 Q88.9056,284.7656 88.7963,284.25 Q88.7494,283.8906 88.5619,283.7031 Q88.2338,283.3281 87.6244,283.1094 Q87.015,282.8906 86.39,282.8906 Q85.6244,282.8906 84.9916,283.2188 Q84.3588,283.5469 83.8666,284.2969 Q83.3744,285.0469 83.3744,286.0781 L83.3744,287.1719 Q83.3744,288.4063 84.265,289.2266 Q85.1556,290.0469 86.7494,290.0469 Q87.6869,290.0469 88.3431,289.7969 Q88.7338,289.6406 89.1556,289.2031 Q89.4213,288.9375 89.5697,288.8594 Q89.7181,288.7813 89.9213,288.7813 Q90.2494,288.7813 90.5072,289.0391 Q90.765,289.2969 90.765,289.6406 Q90.765,289.9844 90.4213,290.3906 Q89.9213,290.9688 89.1244,291.2969 Q88.0463,291.75 86.7494,291.75 Q85.2338,291.75 84.0306,291.125 Q83.0463,290.625 82.3588,289.5547 Q81.6713,288.4844 81.6713,287.2031 L81.6713,286.0469 Q81.6713,284.7188 82.2884,283.5703 Q82.9056,282.4219 83.9994,281.8047 Q85.0931,281.1875 86.3275,281.1875 Q87.0619,281.1875 87.7103,281.3516 Q88.3588,281.5156 88.9056,281.875 Z " fill="#000000"/><text fill="#000000" font-family="sans-serif" font-size="12" lengthAdjust="spacing" textLength="83" x="100.14" y="290.9102">sh:NodeShape</text><line style="stroke:#A80036;stroke-width:1.5;" x1="72.14" x2="185.14" y1="302" y2="302"/><line style="stroke:#A80036;stroke-width:1.5;" x1="72.14" x2="185.14" y1="310" y2="310"/><!--MD5=[343ed68f36560b8702214b37b3e3f531]
class rdfs:Datatype--><rect codeLine="6" fill="#FEFECE" filter="url(#f18wfo11r9w1i7)" height="48" id="rdfs:Datatype" style="stroke:#A80036;stroke-width:1.5;" width="104" x="751.64" y="270"/><ellipse cx="766.64" cy="286" fill="#ADD1B2" rx="11" ry="11" style="stroke:#A80036;stroke-width:1.0;"/><path d="M769.4056,281.875 Q769.5619,281.6563 769.7494,281.5469 Q769.9369,281.4375 770.1556,281.4375 Q770.5306,281.4375 770.765,281.6953 Q770.9994,281.9531 770.9994,282.5625 L770.9994,284.0156 Q770.9994,284.625 770.765,284.8906 Q770.5306,285.1563 770.1556,285.1563 Q769.8119,285.1563 769.6088,284.9531 Q769.4056,284.7656 769.2963,284.25 Q769.2494,283.8906 769.0619,283.7031 Q768.7338,283.3281 768.1244,283.1094 Q767.515,282.8906 766.89,282.8906 Q766.1244,282.8906 765.4916,283.2188 Q764.8588,283.5469 764.3666,284.2969 Q763.8744,285.0469 763.8744,286.0781 L763.8744,287.1719 Q763.8744,288.4063 764.765,289.2266 Q765.6556,290.0469 767.2494,290.0469 Q768.1869,290.0469 768.8431,289.7969 Q769.2338,289.6406 769.6556,289.2031 Q769.9213,288.9375 770.0697,288.8594 Q770.2181,288.7813 770.4213,288.7813 Q770.7494,288.7813 771.0072,289.0391 Q771.265,289.2969 771.265,289.6406 Q771.265,289.9844 770.9213,290.3906 Q770.4213,290.9688 769.6244,291.2969 Q768.5463,291.75 767.2494,291.75 Q765.7338,291.75 764.5306,291.125 Q763.5463,290.625 762.8588,289.5547 Q762.1713,288.4844 762.1713,287.2031 L762.1713,286.0469 Q762.1713,284.7188 762.7884,283.5703 Q763.4056,282.4219 764.4994,281.8047 Q765.5931,281.1875 766.8275,281.1875 Q767.5619,281.1875 768.2103,281.3516 Q768.8588,281.5156 769.4056,281.875 Z " fill="#000000"/><text fill="#000000" font-family="sans-serif" font-size="12" lengthAdjust="spacing" textLength="72" x="780.64" y="290.9102">rdfs:Datatype</text><line style="stroke:#A80036;stroke-width:1.5;" x1="752.64" x2="854.64" y1="302" y2="302"/><line style="stroke:#A80036;stroke-width:1.5;" x1="752.64" x2="854.64" y1="310" y2="310"/><!--MD5=[f5d6fba28c9acdd96eb01d07ddcb0e48]
class rdf:Property--><rect codeLine="7" fill="#FEFECE" filter="url(#f18wfo11r9w1i7)" height="48" id="rdf:Property" style="stroke:#A80036;stroke-width:1.5;" width="94" x="622.64" y="270"/><ellipse cx="637.64" cy="286" fill="#ADD1B2" rx="11" ry="11" style="stroke:#A80036;stroke-width:1.0;"/><path d="M640.4056,281.875 Q640.5619,281.6563 640.7494,281.5469 Q640.9369,281.4375 641.1556,281.4375 Q641.5306,281.4375 641.765,281.6953 Q641.9994,281.9531 641.9994,282.5625 L641.9994,284.0156 Q641.9994,284.625 641.765,284.8906 Q641.5306,285.1563 641.1556,285.1563 Q640.8119,285.1563 640.6088,284.9531 Q640.4056,284.7656 640.2963,284.25 Q640.2494,283.8906 640.0619,283.7031 Q639.7338,283.3281 639.1244,283.1094 Q638.515,282.8906 637.89,282.8906 Q637.1244,282.8906 636.4916,283.2188 Q635.8588,283.5469 635.3666,284.2969 Q634.8744,285.0469 634.8744,286.0781 L634.8744,287.1719 Q634.8744,288.4063 635.765,289.2266 Q636.6556,290.0469 638.2494,290.0469 Q639.1869,290.0469 639.8431,289.7969 Q640.2338,289.6406 640.6556,289.2031 Q640.9213,288.9375 641.0697,288.8594 Q641.2181,288.7813 641.4213,288.7813 Q641.7494,288.7813 642.0072,289.0391 Q642.265,289.2969 642.265,289.6406 Q642.265,289.9844 641.9213,290.3906 Q641.4213,290.9688 640.6244,291.2969 Q639.5463,291.75 638.2494,291.75 Q636.7338,291.75 635.5306,291.125 Q634.5463,290.625 633.8588,289.5547 Q633.1713,288.4844 633.1713,287.2031 L633.1713,286.0469 Q633.1713,284.7188 633.7884,283.5703 Q634.4056,282.4219 635.4994,281.8047 Q636.5931,281.1875 637.8275,281.1875 Q638.5619,281.1875 639.2103,281.3516 Q639.8588,281.5156 640.4056,281.875 Z " fill="#000000"/><text fill="#000000" font-family="sans-serif" font-size="12" lengthAdjust="spacing" textLength="62" x="651.64" y="290.9102">rdf:Property</text><line style="stroke:#A80036;stroke-width:1.5;" x1="623.64" x2="715.64" y1="302" y2="302"/><line style="stroke:#A80036;stroke-width:1.5;" x1="623.64" x2="715.64" y1="310" y2="310"/><!--MD5=[cfc5005d1fab0c9984795eb186ae2155]
class sh:PropertyShape--><rect codeLine="8" fill="#FEFECE" filter="url(#f18wfo11r9w1i7)" height="75.6719" id="sh:PropertyShape" style="stroke:#A80036;stroke-width:1.5;" width="149" x="288.14" y="256"/><ellipse cx="311.69" cy="272" fill="#ADD1B2" rx="11" ry="11" style="stroke:#A80036;stroke-width:1.0;"/><path d="M314.4556,267.875 Q314.6119,267.6563 314.7994,267.5469 Q314.9869,267.4375 315.2056,267.4375 Q315.5806,267.4375 315.815,267.6953 Q316.0494,267.9531 316.0494,268.5625 L316.0494,270.0156 Q316.0494,270.625 315.815,270.8906 Q315.5806,271.1563 315.2056,271.1563 Q314.8619,271.1563 314.6588,270.9531 Q314.4556,270.7656 314.3463,270.25 Q314.2994,269.8906 314.1119,269.7031 Q313.7838,269.3281 313.1744,269.1094 Q312.565,268.8906 311.94,268.8906 Q311.1744,268.8906 310.5416,269.2188 Q309.9088,269.5469 309.4166,270.2969 Q308.9244,271.0469 308.9244,272.0781 L308.9244,273.1719 Q308.9244,274.4063 309.815,275.2266 Q310.7056,276.0469 312.2994,276.0469 Q313.2369,276.0469 313.8931,275.7969 Q314.2838,275.6406 314.7056,275.2031 Q314.9713,274.9375 315.1197,274.8594 Q315.2681,274.7813 315.4713,274.7813 Q315.7994,274.7813 316.0572,275.0391 Q316.315,275.2969 316.315,275.6406 Q316.315,275.9844 315.9713,276.3906 Q315.4713,276.9688 314.6744,277.2969 Q313.5963,277.75 312.2994,277.75 Q310.7838,277.75 309.5806,277.125 Q308.5963,276.625 307.9088,275.5547 Q307.2213,274.4844 307.2213,273.2031 L307.2213,272.0469 Q307.2213,270.7188 307.8384,269.5703 Q308.4556,268.4219 309.5494,267.8047 Q310.6431,267.1875 311.8775,267.1875 Q312.6119,267.1875 313.2603,267.3516 Q313.9088,267.5156 314.4556,267.875 Z " fill="#000000"/><text fill="#000000" font-family="sans-serif" font-size="12" lengthAdjust="spacing" textLength="98" x="327.59" y="276.9102">sh:PropertyShape</text><line style="stroke:#A80036;stroke-width:1.5;" x1="289.14" x2="436.14" y1="288" y2="288"/><text fill="#000000" font-family="sans-serif" font-size="11" lengthAdjust="spacing" textLength="133" x="294.14" y="303.4189">sh:minCount :  "xsd:integer"</text><text fill="#000000" font-family="sans-serif" font-size="11" lengthAdjust="spacing" textLength="137" x="294.14" y="317.2549">sh:maxCount :  "xsd:integer"</text><line style="stroke:#A80036;stroke-width:1.5;" x1="289.14" x2="436.14" y1="323.6719" y2="323.6719"/><!--MD5=[f071ecb23dbf121833784480fda18997]
class owl:Thing--><rect codeLine="12" fill="#FEFECE" filter="url(#f18wfo11r9w1i7)" height="61.8359" id="owl:Thing" style="stroke:#A80036;stroke-width:1.5;" width="143" x="527.14" y="7"/><ellipse cx="568.69" cy="23" fill="#A9DCDF" rx="11" ry="11" style="stroke:#A80036;stroke-width:1.0;"/><path d="M570.8775,24.7656 L566.7369,24.7656 L566.315,25.7969 L566.7369,25.7969 Q567.3462,25.7969 567.6119,26.0313 Q567.8775,26.2656 567.8775,26.6563 Q567.8775,27.0313 567.6119,27.2656 Q567.3462,27.5 566.7369,27.5 L564.44,27.5 Q563.8306,27.5 563.5728,27.2656 Q563.315,27.0313 563.315,26.6406 Q563.315,26.2656 563.5884,26.0234 Q563.8619,25.7813 564.4869,25.7969 L567.1587,19.1406 L566.0494,19.1406 Q565.44,19.1406 565.1744,18.9063 Q564.9087,18.6719 564.9087,18.2813 Q564.9087,17.9063 565.1744,17.6719 Q565.44,17.4375 566.0494,17.4375 L569.7212,17.4375 L573.1119,25.7969 Q573.7056,25.7969 573.8931,25.9375 Q574.2837,26.2031 574.2837,26.6563 Q574.2837,27.0313 574.0259,27.2656 Q573.7681,27.5 573.1587,27.5 L570.8619,27.5 Q570.2525,27.5 569.9869,27.2656 Q569.7212,27.0313 569.7212,26.6406 Q569.7212,26.2656 569.9869,26.0313 Q570.2525,25.7969 570.8619,25.7969 L571.2837,25.7969 L570.8775,24.7656 Z M570.1587,23.0625 L568.7994,19.6875 L567.4244,23.0625 L570.1587,23.0625 Z " fill="#000000"/><text fill="#000000" font-family="sans-serif" font-size="12" font-style="italic" lengthAdjust="spacing" textLength="52" x="588.59" y="27.9102">owl:Thing</text><line style="stroke:#A80036;stroke-width:1.5;" x1="528.14" x2="669.14" y1="39" y2="39"/><text fill="#000000" font-family="sans-serif" font-size="11" lengthAdjust="spacing" textLength="131" x="533.14" y="54.4189">rdfs:comment : "xsd:string"</text><line style="stroke:#A80036;stroke-width:1.5;" x1="528.14" x2="669.14" y1="60.8359" y2="60.8359"/><!--MD5=[82a2fb0b8383334e3120e71dd411f7e5]
reverse link owl:Thing to rdf:Property--><path codeLine="16" d="M620.6,87.67 C622.05,91.47 623.42,95.28 624.64,99 C644.56,159.42 659.09,233.21 665.69,269.93 " fill="none" id="owl:Thing-backto-rdf:Property" style="stroke:#A80036;stroke-width:1.0;"/><polygon fill="none" points="614.1,90.27,612.96,69.11,627.04,84.94,614.1,90.27" style="stroke:#A80036;stroke-width:1.0;"/><!--MD5=[5b368d0abc5ecfbb61460481483f6cd9]
reverse link owl:Thing to rdfs:Datatype--><path codeLine="17" d="M638.45,84.49 C642.6,89.36 646.73,94.27 650.64,99 C700.8,159.66 757.66,233.03 785.85,269.73 " fill="none" id="owl:Thing-backto-rdfs:Datatype" style="stroke:#A80036;stroke-width:1.0;"/><polygon fill="none" points="633.11,89.02,625.37,69.29,643.72,79.88,633.11,89.02" style="stroke:#A80036;stroke-width:1.0;"/><!--MD5=[c455f6ae9c81bdc59bce2d120c13bf9c]
reverse link owl:Thing to sh:Shape--><path codeLine="18" d="M507.35,66.61 C429.86,90.04 322.2,122.59 263.65,140.3 " fill="none" id="owl:Thing-backto-sh:Shape" style="stroke:#A80036;stroke-width:1.0;"/><polygon fill="none" points="505.67,59.8,526.84,60.71,509.73,73.2,505.67,59.8" style="stroke:#A80036;stroke-width:1.0;"/><!--MD5=[7cf1be3a8858e2d91874fed0b1885c9d]
reverse link owl:Thing to owl:Class--><path codeLine="19" d="M602.82,89.52 C606,165.06 599.52,306.41 516.64,380 C471.84,419.79 400.98,430.39 355.41,432.85 " fill="none" id="owl:Thing-backto-owl:Class" style="stroke:#A80036;stroke-width:1.0;"/><polygon fill="none" points="595.81,89.57,601.66,69.21,609.79,88.77,595.81,89.57" style="stroke:#A80036;stroke-width:1.0;"/><!--MD5=[5cd125ded56517fa3b56f2feac6652e7]
reverse link owl:Thing to rdf:List--><path codeLine="20" d="M569.93,86.86 C550.42,120.24 524.63,166.14 504.64,208 C479.04,261.62 496.95,290.28 454.64,332 C412.61,373.45 238.52,411.56 163.4,426.42 " fill="none" id="owl:Thing-backto-rdf:List" style="stroke:#A80036;stroke-width:1.0;"/><polygon fill="none" points="564.13,82.91,580.32,69.24,576.19,90.02,564.13,82.91" style="stroke:#A80036;stroke-width:1.0;"/><!--MD5=[1b2e11ef85f816067562fcc57ada6501]
reverse link sh:Shape to sh:NodeShape--><path codeLine="22" d="M194.75,194.9 C178.37,219.2 158.02,249.4 144.26,269.83 " fill="none" id="sh:Shape-backto-sh:NodeShape" style="stroke:#A80036;stroke-width:1.0;"/><polygon fill="none" points="189.09,190.77,206.08,178.1,200.7,198.6,189.09,190.77" style="stroke:#A80036;stroke-width:1.0;"/><!--MD5=[ad56d924659c96acad3afa1bc6398687]
reverse link sh:Shape to sh:PropertyShape--><path codeLine="23" d="M259.61,192.16 C279.76,211.88 304.44,236.04 324.6,255.77 " fill="none" id="sh:Shape-backto-sh:PropertyShape" style="stroke:#A80036;stroke-width:1.0;"/><polygon fill="none" points="254.64,197.09,245.24,178.1,264.43,187.08,254.64,197.09" style="stroke:#A80036;stroke-width:1.0;"/><!--MD5=[8f3807065019a6dcf0a294a982849dfb]
link sh:Shape to rdf:List--><path codeLine="25" d="M179.54,163 C132.19,174.5 57.5,200.72 23.64,256 C6,284.8 10.41,300.92 23.64,332 C37.13,363.68 65.96,390.23 90,408.14 " fill="none" id="sh:Shape-to-rdf:List" style="stroke:#A80036;stroke-width:1.0;"/><polygon fill="#A80036" points="94.13,411.16,89.2418,402.6099,90.0993,408.2013,84.5079,409.0589,94.13,411.16" style="stroke:#A80036;stroke-width:1.0;"/><text fill="#000000" font-family="sans-serif" font-size="13" lengthAdjust="spacing" textLength="28" x="24.64" y="299.4951">sh:in</text><!--MD5=[f4df90f6811a79723c992479e0ec31bc]
link sh:NodeShape to rdf:List--><path codeLine="26" d="M128.64,318.1 C128.64,341.88 128.64,378.98 128.64,404.55 " fill="none" id="sh:NodeShape-to-rdf:List" style="stroke:#A80036;stroke-width:1.0;"/><polygon fill="#A80036" points="128.64,409.83,132.64,400.83,128.64,404.83,124.64,400.83,128.64,409.83" style="stroke:#A80036;stroke-width:1.0;"/><text fill="#000000" font-family="sans-serif" font-size="13" lengthAdjust="spacing" textLength="39" x="129.64" y="376.4951">sh:and</text><!--MD5=[4e3a108e788e26f45da19d424d0e90e3]
link sh:NodeShape to sh:PropertyShape--><path codeLine="27" d="M186.18,294 C215.34,294 251.21,294 282.98,294 " fill="none" id="sh:NodeShape-to-sh:PropertyShape" style="stroke:#A80036;stroke-width:1.0;"/><polygon fill="#A80036" points="288.04,294,279.04,290,283.04,294,279.04,298,288.04,294" style="stroke:#A80036;stroke-width:1.0;"/><text fill="#000000" font-family="sans-serif" font-size="13" lengthAdjust="spacing" textLength="65" x="204.64" y="287.4951">sh:property</text><!--MD5=[408f821662ce3b91f8e4178c5b1fd6ce]
link sh:PropertyShape to sh:NodeShape--><path codeLine="30" d="M287.81,312.24 C263.97,315.98 237.47,317.98 213.14,315 C206.07,314.13 198.74,312.88 191.48,311.4 " fill="none" id="sh:PropertyShape-to-sh:NodeShape" style="stroke:#A80036;stroke-width:1.0;"/><polygon fill="#A80036" points="186.48,310.34,194.4663,316.1036,191.3734,311.3672,196.1098,308.2742,186.48,310.34" style="stroke:#A80036;stroke-width:1.0;"/><text fill="#000000" font-family="sans-serif" font-size="13" lengthAdjust="spacing" textLength="46" x="214.14" y="311.4951">sh:node</text><!--MD5=[9bd24bd7a8fa4337f416991721bf0d4f]
link sh:NodeShape to owl:Class--><path codeLine="28" d="M159.27,318.1 C191.73,342.58 242.9,381.16 276.86,406.77 " fill="none" id="sh:NodeShape-to-owl:Class" style="stroke:#A80036;stroke-width:1.0;"/><polygon fill="#A80036" points="280.91,409.83,276.1248,401.2218,276.9152,406.8231,271.3138,407.6135,280.91,409.83" style="stroke:#A80036;stroke-width:1.0;"/><text fill="#000000" font-family="sans-serif" font-size="13" lengthAdjust="spacing" textLength="84" x="237.64" y="376.4951">sh:targetClass</text><!--MD5=[5557b04a14f6184ae937e157a50ff770]
link sh:PropertyShape to rdf:Property--><path codeLine="29" d="M437.35,294 C493.12,294 567.92,294 617.4,294 " fill="none" id="sh:PropertyShape-to-rdf:Property" style="stroke:#A80036;stroke-width:1.0;"/><polygon fill="#A80036" points="622.4,294,613.4,290,617.4,294,613.4,298,622.4,294" style="stroke:#A80036;stroke-width:1.0;"/><text fill="#000000" font-family="sans-serif" font-size="13" lengthAdjust="spacing" textLength="43" x="508.39" y="287.4951">sh:path</text><!--MD5=[908823a91339f7f4e3b83348c3663c85]
link sh:PropertyShape to rdfs:Datatype--><path codeLine="31" d="M420.66,255.95 C445.72,241.69 476.04,227.21 505.64,220 C605.75,195.63 638.33,219.41 734.64,256 C743.06,259.2 751.7,263.26 759.91,267.54 " fill="none" id="sh:PropertyShape-to-rdfs:Datatype" style="stroke:#A80036;stroke-width:1.0;"/><polygon fill="#A80036" points="764.42,269.93,758.3455,262.1775,760.0035,267.586,754.5951,269.2439,764.42,269.93" style="stroke:#A80036;stroke-width:1.0;"/><text fill="#000000" font-family="sans-serif" font-size="13" lengthAdjust="spacing" textLength="68" x="506.64" y="222.4951">sh:datatype</text><!--MD5=[9c10c7c8c86b495bcabac35e8eb4171e]
@startuml ConstraintDiagram

abstract class "sh:Shape"
class "owl:Class"
class "rdf:List" 
class "sh:NodeShape" 
class "rdfs:Datatype"
class "rdf:Property" 
class "sh:PropertyShape" {
    sh:minCount :  "xsd:integer"
    sh:maxCount :  "xsd:integer"
}
abstract class "owl:Thing" { 
 rdfs:comment : "xsd:string" 
}

"owl:Thing" <|- -  "rdf:Property"
"owl:Thing" <|- -  "rdfs:Datatype"
"owl:Thing" <|- -  "sh:Shape"
"owl:Thing" <|- -  "owl:Class"
"owl:Thing" <|- -  "rdf:List"

"sh:Shape" <|- -   "sh:NodeShape"
"sh:Shape" <|- -   "sh:PropertyShape"

"sh:Shape" -> "rdf:List" : "sh:in"
"sh:NodeShape" - -> "rdf:List" : "sh:and"
"sh:NodeShape" - -> "sh:PropertyShape" : "sh:property"
"sh:NodeShape" - -> "owl:Class" : "sh:targetClass"
"sh:PropertyShape" -> "rdf:Property" : "sh:path"
"sh:PropertyShape" -> "sh:NodeShape" : "sh:node"
"sh:PropertyShape" -> "rdfs:Datatype" : "sh:datatype"


@enduml

PlantUML version 1.2022.0(Tue Jan 11 17:16:42 CET 2022)
(GPL source distribution)
Java Runtime: Java(TM) SE Runtime Environment
JVM: Java HotSpot(TM) 64-Bit Server VM
Default Encoding: Cp1252
Language: nl
Country: NL
--></g></svg>