<?xml version="1.0" encoding="UTF-8" standalone="no"?><svg xmlns="http://www.w3.org/2000/svg" xmlns:xlink="http://www.w3.org/1999/xlink" contentScriptType="application/ecmascript" contentStyleType="text/css" height="368px" preserveAspectRatio="none" style="width:563px;height:368px;background:#FFFFFF;" version="1.1" viewBox="0 0 563 368" width="563px" zoomAndPan="magnify"><defs><filter height="300%" id="f1rngtueggz3m6" width="300%" x="-1" y="-1"><feGaussianBlur result="blurOut" stdDeviation="2.0"/><feColorMatrix in="blurOut" result="blurOut2" type="matrix" values="0 0 0 0 0 0 0 0 0 0 0 0 0 0 0 0 0 0 .4 0"/><feOffset dx="4.0" dy="4.0" in="blurOut2" result="blurOut3"/><feBlend in="SourceGraphic" in2="blurOut3" mode="normal"/></filter></defs><g><!--MD5=[d3ab607d3775ae498d0f2335b9ea0b8e]
class vocab:A--><rect codeLine="13" fill="#D3D3D3" filter="url(#f1rngtueggz3m6)" height="75.6719" id="vocab:A" style="stroke:#000000;stroke-width:1.5;" width="157" x="142.5" y="129"/><ellipse cx="195.75" cy="145" fill="#ADD1B2" rx="11" ry="11" style="stroke:#000000;stroke-width:1.0;"/><path d="M198.5156,140.875 Q198.6719,140.6563 198.8594,140.5469 Q199.0469,140.4375 199.2656,140.4375 Q199.6406,140.4375 199.875,140.6953 Q200.1094,140.9531 200.1094,141.5625 L200.1094,143.0156 Q200.1094,143.625 199.875,143.8906 Q199.6406,144.1563 199.2656,144.1563 Q198.9219,144.1563 198.7188,143.9531 Q198.5156,143.7656 198.4063,143.25 Q198.3594,142.8906 198.1719,142.7031 Q197.8438,142.3281 197.2344,142.1094 Q196.625,141.8906 196,141.8906 Q195.2344,141.8906 194.6016,142.2188 Q193.9688,142.5469 193.4766,143.2969 Q192.9844,144.0469 192.9844,145.0781 L192.9844,146.1719 Q192.9844,147.4063 193.875,148.2266 Q194.7656,149.0469 196.3594,149.0469 Q197.2969,149.0469 197.9531,148.7969 Q198.3438,148.6406 198.7656,148.2031 Q199.0313,147.9375 199.1797,147.8594 Q199.3281,147.7813 199.5313,147.7813 Q199.8594,147.7813 200.1172,148.0391 Q200.375,148.2969 200.375,148.6406 Q200.375,148.9844 200.0313,149.3906 Q199.5313,149.9688 198.7344,150.2969 Q197.6563,150.75 196.3594,150.75 Q194.8438,150.75 193.6406,150.125 Q192.6563,149.625 191.9688,148.5547 Q191.2813,147.4844 191.2813,146.2031 L191.2813,145.0469 Q191.2813,143.7188 191.8984,142.5703 Q192.5156,141.4219 193.6094,140.8047 Q194.7031,140.1875 195.9375,140.1875 Q196.6719,140.1875 197.3203,140.3516 Q197.9688,140.5156 198.5156,140.875 Z " fill="#000000"/><text fill="#000000" font-family="sans-serif" font-size="12" lengthAdjust="spacing" textLength="42" x="216.25" y="149.9102">vocab:A</text><line style="stroke:#000000;stroke-width:1.5;" x1="143.5" x2="298.5" y1="161" y2="161"/><text fill="#000000" font-family="sans-serif" font-size="11" lengthAdjust="spacing" textLength="145" x="148.5" y="176.4189">vocab:abc : xsd:dateTime 0..5</text><text fill="#000000" font-family="sans-serif" font-size="11" lengthAdjust="spacing" textLength="119" x="148.5" y="190.2549">vocab:id : xsd:string 1..1</text><line style="stroke:#000000;stroke-width:1.5;" x1="143.5" x2="298.5" y1="196.6719" y2="196.6719"/><!--MD5=[e27fb14453e22082a4aedef8941525b5]
class vocab:B--><rect codeLine="18" fill="#D3D3D3" filter="url(#f1rngtueggz3m6)" height="61.8359" id="vocab:B" style="stroke:#000000;stroke-width:1.5;" width="144" x="328" y="7"/><ellipse cx="374.25" cy="23" fill="#ADD1B2" rx="11" ry="11" style="stroke:#000000;stroke-width:1.0;"/><path d="M377.0156,18.875 Q377.1719,18.6563 377.3594,18.5469 Q377.5469,18.4375 377.7656,18.4375 Q378.1406,18.4375 378.375,18.6953 Q378.6094,18.9531 378.6094,19.5625 L378.6094,21.0156 Q378.6094,21.625 378.375,21.8906 Q378.1406,22.1563 377.7656,22.1563 Q377.4219,22.1563 377.2188,21.9531 Q377.0156,21.7656 376.9063,21.25 Q376.8594,20.8906 376.6719,20.7031 Q376.3438,20.3281 375.7344,20.1094 Q375.125,19.8906 374.5,19.8906 Q373.7344,19.8906 373.1016,20.2188 Q372.4688,20.5469 371.9766,21.2969 Q371.4844,22.0469 371.4844,23.0781 L371.4844,24.1719 Q371.4844,25.4063 372.375,26.2266 Q373.2656,27.0469 374.8594,27.0469 Q375.7969,27.0469 376.4531,26.7969 Q376.8438,26.6406 377.2656,26.2031 Q377.5313,25.9375 377.6797,25.8594 Q377.8281,25.7813 378.0313,25.7813 Q378.3594,25.7813 378.6172,26.0391 Q378.875,26.2969 378.875,26.6406 Q378.875,26.9844 378.5313,27.3906 Q378.0313,27.9688 377.2344,28.2969 Q376.1563,28.75 374.8594,28.75 Q373.3438,28.75 372.1406,28.125 Q371.1563,27.625 370.4688,26.5547 Q369.7813,25.4844 369.7813,24.2031 L369.7813,23.0469 Q369.7813,21.7188 370.3984,20.5703 Q371.0156,19.4219 372.1094,18.8047 Q373.2031,18.1875 374.4375,18.1875 Q375.1719,18.1875 375.8203,18.3516 Q376.4688,18.5156 377.0156,18.875 Z " fill="#000000"/><text fill="#000000" font-family="sans-serif" font-size="12" lengthAdjust="spacing" textLength="43" x="394.75" y="27.9102">vocab:B</text><line style="stroke:#000000;stroke-width:1.5;" x1="329" x2="471" y1="39" y2="39"/><text fill="#000000" font-family="sans-serif" font-size="11" lengthAdjust="spacing" textLength="132" x="334" y="54.4189">vocab:bcd : xsd:double 2..*</text><line style="stroke:#000000;stroke-width:1.5;" x1="329" x2="471" y1="60.8359" y2="60.8359"/><!--MD5=[045a90a5c1cad5c7a3c858d8471e2644]
class vocab:C--><rect codeLine="22" fill="#D3D3D3" filter="url(#f1rngtueggz3m6)" height="89.5078" id="vocab:C" style="stroke:#000000;stroke-width:1.5;" width="95" x="107.5" y="265"/><ellipse cx="131.05" cy="281" fill="#EB937F" rx="11" ry="11" style="stroke:#000000;stroke-width:1.0;"/><path d="M129.9094,281.7969 L129.9094,284.2969 L134.2375,284.2969 L134.2375,283.375 Q134.2375,282.7656 134.4797,282.5 Q134.7219,282.2344 135.0969,282.2344 Q135.4719,282.2344 135.7063,282.5 Q135.9406,282.7656 135.9406,283.375 L135.9406,286 L127.9406,286 Q127.3156,286 127.0578,285.7656 Q126.8,285.5313 126.8,285.1406 Q126.8,284.7656 127.0656,284.5313 Q127.3313,284.2969 127.9406,284.2969 L128.2063,284.2969 L128.2063,277.6406 L127.9406,277.6406 Q127.3156,277.6406 127.0578,277.4063 Q126.8,277.1719 126.8,276.7813 Q126.8,276.4063 127.0578,276.1719 Q127.3156,275.9375 127.9406,275.9375 L135.5656,275.9375 L135.5656,278.5313 Q135.5656,279.1406 135.3391,279.3984 Q135.1125,279.6563 134.7219,279.6563 Q134.3469,279.6563 134.1125,279.3984 Q133.8781,279.1406 133.8781,278.5313 L133.8781,277.6406 L129.9094,277.6406 L129.9094,280.0938 L131.3938,280.0938 Q131.3938,279.4375 131.5188,279.25 Q131.7844,278.8438 132.2531,278.8438 Q132.6281,278.8438 132.8625,279.1016 Q133.0969,279.3594 133.0969,279.9688 L133.0969,281.9375 Q133.0969,282.4844 132.9719,282.6719 Q132.7063,283.0625 132.2531,283.0625 Q131.7844,283.0625 131.5188,282.6563 Q131.3938,282.4688 131.3938,281.7969 L129.9094,281.7969 Z " fill="#000000"/><text fill="#000000" font-family="sans-serif" font-size="12" lengthAdjust="spacing" textLength="44" x="146.95" y="285.9102">vocab:C</text><line style="stroke:#000000;stroke-width:1.5;" x1="108.5" x2="201.5" y1="297" y2="297"/><text fill="#000000" font-family="sans-serif" font-size="11" lengthAdjust="spacing" textLength="83" x="113.5" y="312.4189">vocab:individual1</text><text fill="#000000" font-family="sans-serif" font-size="11" lengthAdjust="spacing" textLength="83" x="113.5" y="326.2549">vocab:individual2</text><text fill="#000000" font-family="sans-serif" font-size="11" lengthAdjust="spacing" textLength="83" x="113.5" y="340.0908">vocab:individual3</text><line style="stroke:#000000;stroke-width:1.5;" x1="108.5" x2="201.5" y1="346.5078" y2="346.5078"/><!--MD5=[7c3b3d371e7b28c4ce9e30eb09ef5dba]
class vocab:D--><rect codeLine="28" fill="#D3D3D3" filter="url(#f1rngtueggz3m6)" height="75.6719" id="vocab:D" style="stroke:#000000;stroke-width:1.5;" width="131" x="334.5" y="129"/><ellipse cx="374.25" cy="145" fill="#ADD1B2" rx="11" ry="11" style="stroke:#000000;stroke-width:1.0;"/><path d="M377.0156,140.875 Q377.1719,140.6563 377.3594,140.5469 Q377.5469,140.4375 377.7656,140.4375 Q378.1406,140.4375 378.375,140.6953 Q378.6094,140.9531 378.6094,141.5625 L378.6094,143.0156 Q378.6094,143.625 378.375,143.8906 Q378.1406,144.1563 377.7656,144.1563 Q377.4219,144.1563 377.2188,143.9531 Q377.0156,143.7656 376.9063,143.25 Q376.8594,142.8906 376.6719,142.7031 Q376.3438,142.3281 375.7344,142.1094 Q375.125,141.8906 374.5,141.8906 Q373.7344,141.8906 373.1016,142.2188 Q372.4688,142.5469 371.9766,143.2969 Q371.4844,144.0469 371.4844,145.0781 L371.4844,146.1719 Q371.4844,147.4063 372.375,148.2266 Q373.2656,149.0469 374.8594,149.0469 Q375.7969,149.0469 376.4531,148.7969 Q376.8438,148.6406 377.2656,148.2031 Q377.5313,147.9375 377.6797,147.8594 Q377.8281,147.7813 378.0313,147.7813 Q378.3594,147.7813 378.6172,148.0391 Q378.875,148.2969 378.875,148.6406 Q378.875,148.9844 378.5313,149.3906 Q378.0313,149.9688 377.2344,150.2969 Q376.1563,150.75 374.8594,150.75 Q373.3438,150.75 372.1406,150.125 Q371.1563,149.625 370.4688,148.5547 Q369.7813,147.4844 369.7813,146.2031 L369.7813,145.0469 Q369.7813,143.7188 370.3984,142.5703 Q371.0156,141.4219 372.1094,140.8047 Q373.2031,140.1875 374.4375,140.1875 Q375.1719,140.1875 375.8203,140.3516 Q376.4688,140.5156 377.0156,140.875 Z " fill="#000000"/><text fill="#000000" font-family="sans-serif" font-size="12" lengthAdjust="spacing" textLength="44" x="393.75" y="149.9102">vocab:D</text><line style="stroke:#000000;stroke-width:1.5;" x1="335.5" x2="464.5" y1="161" y2="161"/><text fill="#000000" font-family="sans-serif" font-size="11" lengthAdjust="spacing" textLength="111" x="340.5" y="176.4189">vocab:def : xsd:int 0..1</text><text fill="#000000" font-family="sans-serif" font-size="11" lengthAdjust="spacing" textLength="119" x="340.5" y="190.2549">vocab:id : xsd:string 1..1</text><line style="stroke:#000000;stroke-width:1.5;" x1="335.5" x2="464.5" y1="196.6719" y2="196.6719"/><!--MD5=[23c4ac8a3abed7f8ed0f9a393bf4105a]
class vocab:E--><rect codeLine="33" fill="#D3D3D3" filter="url(#f1rngtueggz3m6)" height="48" id="vocab:E" style="stroke:#000000;stroke-width:1.5;" width="75" x="117.5" y="14"/><ellipse cx="132.5" cy="30" fill="#ADD1B2" rx="11" ry="11" style="stroke:#000000;stroke-width:1.0;"/><path d="M135.2656,25.875 Q135.4219,25.6563 135.6094,25.5469 Q135.7969,25.4375 136.0156,25.4375 Q136.3906,25.4375 136.625,25.6953 Q136.8594,25.9531 136.8594,26.5625 L136.8594,28.0156 Q136.8594,28.625 136.625,28.8906 Q136.3906,29.1563 136.0156,29.1563 Q135.6719,29.1563 135.4688,28.9531 Q135.2656,28.7656 135.1563,28.25 Q135.1094,27.8906 134.9219,27.7031 Q134.5938,27.3281 133.9844,27.1094 Q133.375,26.8906 132.75,26.8906 Q131.9844,26.8906 131.3516,27.2188 Q130.7188,27.5469 130.2266,28.2969 Q129.7344,29.0469 129.7344,30.0781 L129.7344,31.1719 Q129.7344,32.4063 130.625,33.2266 Q131.5156,34.0469 133.1094,34.0469 Q134.0469,34.0469 134.7031,33.7969 Q135.0938,33.6406 135.5156,33.2031 Q135.7813,32.9375 135.9297,32.8594 Q136.0781,32.7813 136.2813,32.7813 Q136.6094,32.7813 136.8672,33.0391 Q137.125,33.2969 137.125,33.6406 Q137.125,33.9844 136.7813,34.3906 Q136.2813,34.9688 135.4844,35.2969 Q134.4063,35.75 133.1094,35.75 Q131.5938,35.75 130.3906,35.125 Q129.4063,34.625 128.7188,33.5547 Q128.0313,32.4844 128.0313,31.2031 L128.0313,30.0469 Q128.0313,28.7188 128.6484,27.5703 Q129.2656,26.4219 130.3594,25.8047 Q131.4531,25.1875 132.6875,25.1875 Q133.4219,25.1875 134.0703,25.3516 Q134.7188,25.5156 135.2656,25.875 Z " fill="#000000"/><text fill="#000000" font-family="sans-serif" font-size="12" lengthAdjust="spacing" textLength="43" x="146.5" y="34.9102">vocab:E</text><line style="stroke:#000000;stroke-width:1.5;" x1="118.5" x2="191.5" y1="46" y2="46"/><line style="stroke:#000000;stroke-width:1.5;" x1="118.5" x2="191.5" y1="54" y2="54"/><!--MD5=[0ebe4bd6c4f04aa2319ee7c48252f7d3]
link vocab:A to vocab:C--><path codeLine="36" d="M172.5,205.32 C172.5,205.32 172.5,259.97 172.5,259.97 " fill="none" id="vocab:A-to-vocab:C" style="stroke:#000000;stroke-width:1.0;"/><polygon fill="#000000" points="172.5,264.97,176.5,255.97,172.5,259.97,168.5,255.97,172.5,264.97" style="stroke:#000000;stroke-width:1.0;"/><text fill="#000000" font-family="sans-serif" font-size="13" lengthAdjust="spacing" textLength="125" x="46.5" y="229.1451">vocab:FromAToC 1..1</text><!--MD5=[a1308392128fca638050cea9a656b6c6]
link vocab:B to vocab:A--><path codeLine="38" d="M327.96,66 C287.88,66 246,66 246,66 C246,66 246,108.82 246,108.82 " fill="none" id="vocab:B-to-vocab:A" style="stroke:#000000;stroke-width:1.0;"/><polygon fill="none" points="253,108.82,246,128.82,239,108.82,253,108.82" style="stroke:#000000;stroke-width:1.0;"/><text fill="#000000" font-family="sans-serif" font-size="13" lengthAdjust="spacing" textLength="39" x="225.57" y="62.4951">sh:and</text><!--MD5=[29a7e44c313d4a9a236686d8ce7c0bae]
link vocab:B to vocab:D--><path codeLine="39" d="M400,69.23 C400,69.23 400,123.69 400,123.69 " fill="none" id="vocab:B-to-vocab:D" style="stroke:#000000;stroke-width:1.0;"/><polygon fill="#000000" points="400,128.69,404,119.69,400,123.69,396,119.69,400,128.69" style="stroke:#000000;stroke-width:1.0;"/><text fill="#000000" font-family="sans-serif" font-size="13" lengthAdjust="spacing" textLength="122" x="277" y="92.9551">vocab:FromBtoD 0..1</text><!--MD5=[29a7e44c313d4a9a236686d8ce7c0bae]
link vocab:B to vocab:D--><path codeLine="40" d="M367.25,69.23 C367.25,69.23 367.25,123.69 367.25,123.69 " fill="none" id="vocab:B-to-vocab:D-1" style="stroke:#000000;stroke-width:1.0;"/><polygon fill="#000000" points="367.25,128.69,371.25,119.69,367.25,123.69,363.25,119.69,367.25,128.69" style="stroke:#000000;stroke-width:1.0;"/><text fill="#000000" font-family="sans-serif" font-size="13" lengthAdjust="spacing" textLength="246" x="120.25" y="110.9551">vocab:FromBtoDButSomehowDifferent 1..1</text><!--MD5=[62ac000cd962dc0bb1f9eeb7c9ec0134]
link vocab:D to vocab:B--><path codeLine="42" d="M432.75,128.99 C432.75,128.99 432.75,74.23 432.75,74.23 " fill="none" id="vocab:D-to-vocab:B" style="stroke:#000000;stroke-width:1.0;"/><polygon fill="#000000" points="432.75,69.23,428.75,78.23,432.75,74.23,436.75,78.23,432.75,69.23" style="stroke:#000000;stroke-width:1.0;"/><text fill="#000000" font-family="sans-serif" font-size="13" lengthAdjust="spacing" textLength="122" x="433.75" y="98.1051">vocab:FromDtoB 1..3</text><!--MD5=[514090891ee8b567c8ccc4895163f113]
link vocab:E to vocab:A--><path codeLine="44" d="M167.5,62.26 C167.5,62.26 167.5,108.9 167.5,108.9 " fill="none" id="vocab:E-to-vocab:A" style="stroke:#000000;stroke-width:1.0;"/><polygon fill="none" points="174.5,108.9,167.5,128.9,160.5,108.9,174.5,108.9" style="stroke:#000000;stroke-width:1.0;"/><text fill="#000000" font-family="sans-serif" font-size="13" lengthAdjust="spacing" textLength="39" x="127.5" y="82.0751">sh:and</text><!--MD5=[0b632a60dc1ee763d9ab9aefb5db2e8d]
link vocab:E to vocab:C--><path codeLine="45" d="M130,62.14 C130,62.14 130,259.93 130,259.93 " fill="none" id="vocab:E-to-vocab:C" style="stroke:#000000;stroke-width:1.0;"/><polygon fill="#000000" points="130,264.93,134,255.93,130,259.93,126,255.93,130,264.93" style="stroke:#000000;stroke-width:1.0;"/><text fill="#000000" font-family="sans-serif" font-size="13" lengthAdjust="spacing" textLength="122" x="7" y="157.5251">vocab:FromEtoC 0..1</text><!--MD5=[477678dd347d7362b21017627e0c61d4]
@startuml exampleConstraintDiagram

skinparam class {
    BackgroundColor lightGrey
    BorderColor Black
    ArrowColor Black
    fixCircleLabelOverlapping true
    linetype ortho
}

skinparam fixCircleLabelOverlapping true
skinparam linetype ortho

class "vocab:A" {
    vocab:abc : xsd:dateTime 0..5
    vocab:id : xsd:string 1..1
}

class "vocab:B" {
    vocab:bcd : xsd:double 2..*
}

enum "vocab:C" {
    vocab:individual1
    vocab:individual2
    vocab:individual3
}

class "vocab:D" {
    vocab:def : xsd:int 0..1
    vocab:id : xsd:string 1..1
}

class "vocab:E" 


"vocab:A" - -> "vocab:C" :  "vocab:FromAToC 1..1"

"vocab:B" - -|> "vocab:A" : "sh:and"
"vocab:B" - -> "vocab:D" : "vocab:FromBtoD 0..1"
"vocab:B" - -> "vocab:D" : "vocab:FromBtoDButSomehowDifferent 1..1"

"vocab:D" - -> "vocab:B" : "vocab:FromDtoB 1..3"

"vocab:E" - -|> "vocab:A" : "sh:and"
"vocab:E" - -> "vocab:C" : "vocab:FromEtoC 0..1"

@enduml

PlantUML version 1.2022.0(Tue Jan 11 17:16:42 CET 2022)
(GPL source distribution)
Java Runtime: Java(TM) SE Runtime Environment
JVM: Java HotSpot(TM) 64-Bit Server VM
Default Encoding: Cp1252
Language: nl
Country: NL
--></g></svg>