<?xml version="1.0" encoding="UTF-8" standalone="no"?><svg xmlns="http://www.w3.org/2000/svg" xmlns:xlink="http://www.w3.org/1999/xlink" contentScriptType="application/ecmascript" contentStyleType="text/css" height="544px" preserveAspectRatio="none" style="width:810px;height:544px;background:#FFFFFF;" version="1.1" viewBox="0 0 810 544" width="810px" zoomAndPan="magnify"><defs><filter height="300%" id="ftchmmo7h0yzm" width="300%" x="-1" y="-1"><feGaussianBlur result="blurOut" stdDeviation="2.0"/><feColorMatrix in="blurOut" result="blurOut2" type="matrix" values="0 0 0 0 0 0 0 0 0 0 0 0 0 0 0 0 0 0 .4 0"/><feOffset dx="4.0" dy="4.0" in="blurOut2" result="blurOut3"/><feBlend in="SourceGraphic" in2="blurOut3" mode="normal"/></filter></defs><g><!--MD5=[f071ecb23dbf121833784480fda18997]
class owl:Thing--><rect codeLine="8" fill="#FFFFFF" filter="url(#ftchmmo7h0yzm)" height="61.8359" id="owl:Thing" style="stroke:#000000;stroke-width:1.5;" width="110" x="221.5" y="469"/><ellipse cx="247.75" cy="485" fill="#ADD1B2" rx="11" ry="11" style="stroke:#000000;stroke-width:1.0;"/><path d="M250.5156,480.875 Q250.6719,480.6563 250.8594,480.5469 Q251.0469,480.4375 251.2656,480.4375 Q251.6406,480.4375 251.875,480.6953 Q252.1094,480.9531 252.1094,481.5625 L252.1094,483.0156 Q252.1094,483.625 251.875,483.8906 Q251.6406,484.1563 251.2656,484.1563 Q250.9219,484.1563 250.7188,483.9531 Q250.5156,483.7656 250.4063,483.25 Q250.3594,482.8906 250.1719,482.7031 Q249.8438,482.3281 249.2344,482.1094 Q248.625,481.8906 248,481.8906 Q247.2344,481.8906 246.6016,482.2188 Q245.9688,482.5469 245.4766,483.2969 Q244.9844,484.0469 244.9844,485.0781 L244.9844,486.1719 Q244.9844,487.4063 245.875,488.2266 Q246.7656,489.0469 248.3594,489.0469 Q249.2969,489.0469 249.9531,488.7969 Q250.3438,488.6406 250.7656,488.2031 Q251.0313,487.9375 251.1797,487.8594 Q251.3281,487.7813 251.5313,487.7813 Q251.8594,487.7813 252.1172,488.0391 Q252.375,488.2969 252.375,488.6406 Q252.375,488.9844 252.0313,489.3906 Q251.5313,489.9688 250.7344,490.2969 Q249.6563,490.75 248.3594,490.75 Q246.8438,490.75 245.6406,490.125 Q244.6563,489.625 243.9688,488.5547 Q243.2813,487.4844 243.2813,486.2031 L243.2813,485.0469 Q243.2813,483.7188 243.8984,482.5703 Q244.5156,481.4219 245.6094,480.8047 Q246.7031,480.1875 247.9375,480.1875 Q248.6719,480.1875 249.3203,480.3516 Q249.9688,480.5156 250.5156,480.875 Z " fill="#000000"/><text fill="#000000" font-family="sans-serif" font-size="12" lengthAdjust="spacing" textLength="53" x="264.25" y="489.9102">owl:Thing</text><line style="stroke:#000000;stroke-width:1.5;" x1="222.5" x2="330.5" y1="501" y2="501"/><text fill="#000000" font-family="sans-serif" font-size="11" lengthAdjust="spacing" textLength="98" x="227.5" y="516.4189">vocab:id : xsd:string</text><line style="stroke:#000000;stroke-width:1.5;" x1="222.5" x2="330.5" y1="522.8359" y2="522.8359"/><!--MD5=[d3ab607d3775ae498d0f2335b9ea0b8e]
class vocab:A--><rect codeLine="13" fill="#FFFFFF" filter="url(#ftchmmo7h0yzm)" height="75.6719" id="vocab:A" style="stroke:#000000;stroke-width:1.5;" width="145" x="155" y="147"/><ellipse cx="202.25" cy="163" fill="#ADD1B2" rx="11" ry="11" style="stroke:#000000;stroke-width:1.0;"/><path d="M205.0156,158.875 Q205.1719,158.6563 205.3594,158.5469 Q205.5469,158.4375 205.7656,158.4375 Q206.1406,158.4375 206.375,158.6953 Q206.6094,158.9531 206.6094,159.5625 L206.6094,161.0156 Q206.6094,161.625 206.375,161.8906 Q206.1406,162.1563 205.7656,162.1563 Q205.4219,162.1563 205.2188,161.9531 Q205.0156,161.7656 204.9063,161.25 Q204.8594,160.8906 204.6719,160.7031 Q204.3438,160.3281 203.7344,160.1094 Q203.125,159.8906 202.5,159.8906 Q201.7344,159.8906 201.1016,160.2188 Q200.4688,160.5469 199.9766,161.2969 Q199.4844,162.0469 199.4844,163.0781 L199.4844,164.1719 Q199.4844,165.4063 200.375,166.2266 Q201.2656,167.0469 202.8594,167.0469 Q203.7969,167.0469 204.4531,166.7969 Q204.8438,166.6406 205.2656,166.2031 Q205.5313,165.9375 205.6797,165.8594 Q205.8281,165.7813 206.0313,165.7813 Q206.3594,165.7813 206.6172,166.0391 Q206.875,166.2969 206.875,166.6406 Q206.875,166.9844 206.5313,167.3906 Q206.0313,167.9688 205.2344,168.2969 Q204.1563,168.75 202.8594,168.75 Q201.3438,168.75 200.1406,168.125 Q199.1563,167.625 198.4688,166.5547 Q197.7813,165.4844 197.7813,164.2031 L197.7813,163.0469 Q197.7813,161.7188 198.3984,160.5703 Q199.0156,159.4219 200.1094,158.8047 Q201.2031,158.1875 202.4375,158.1875 Q203.1719,158.1875 203.8203,158.3516 Q204.4688,158.5156 205.0156,158.875 Z " fill="#000000"/><text fill="#000000" font-family="sans-serif" font-size="12" lengthAdjust="spacing" textLength="42" x="222.75" y="167.9102">vocab:A</text><line style="stroke:#000000;stroke-width:1.5;" x1="156" x2="299" y1="179" y2="179"/><text fill="#000000" font-family="sans-serif" font-size="11" lengthAdjust="spacing" textLength="133" x="161" y="194.4189">vocab:FromAToC : vocab:C</text><text fill="#000000" font-family="sans-serif" font-size="11" lengthAdjust="spacing" textLength="124" x="161" y="208.2549">vocab:abc : xsd:dateTime</text><line style="stroke:#000000;stroke-width:1.5;" x1="156" x2="299" y1="214.6719" y2="214.6719"/><!--MD5=[e27fb14453e22082a4aedef8941525b5]
class vocab:B--><rect codeLine="17" fill="#FFFFFF" filter="url(#ftchmmo7h0yzm)" height="61.8359" id="vocab:B" style="stroke:#000000;stroke-width:1.5;" width="125" x="368" y="7"/><ellipse cx="405.5" cy="23" fill="#ADD1B2" rx="11" ry="11" style="stroke:#000000;stroke-width:1.0;"/><path d="M408.2656,18.875 Q408.4219,18.6563 408.6094,18.5469 Q408.7969,18.4375 409.0156,18.4375 Q409.3906,18.4375 409.625,18.6953 Q409.8594,18.9531 409.8594,19.5625 L409.8594,21.0156 Q409.8594,21.625 409.625,21.8906 Q409.3906,22.1563 409.0156,22.1563 Q408.6719,22.1563 408.4688,21.9531 Q408.2656,21.7656 408.1563,21.25 Q408.1094,20.8906 407.9219,20.7031 Q407.5938,20.3281 406.9844,20.1094 Q406.375,19.8906 405.75,19.8906 Q404.9844,19.8906 404.3516,20.2188 Q403.7188,20.5469 403.2266,21.2969 Q402.7344,22.0469 402.7344,23.0781 L402.7344,24.1719 Q402.7344,25.4063 403.625,26.2266 Q404.5156,27.0469 406.1094,27.0469 Q407.0469,27.0469 407.7031,26.7969 Q408.0938,26.6406 408.5156,26.2031 Q408.7813,25.9375 408.9297,25.8594 Q409.0781,25.7813 409.2813,25.7813 Q409.6094,25.7813 409.8672,26.0391 Q410.125,26.2969 410.125,26.6406 Q410.125,26.9844 409.7813,27.3906 Q409.2813,27.9688 408.4844,28.2969 Q407.4063,28.75 406.1094,28.75 Q404.5938,28.75 403.3906,28.125 Q402.4063,27.625 401.7188,26.5547 Q401.0313,25.4844 401.0313,24.2031 L401.0313,23.0469 Q401.0313,21.7188 401.6484,20.5703 Q402.2656,19.4219 403.3594,18.8047 Q404.4531,18.1875 405.6875,18.1875 Q406.4219,18.1875 407.0703,18.3516 Q407.7188,18.5156 408.2656,18.875 Z " fill="#000000"/><text fill="#000000" font-family="sans-serif" font-size="12" lengthAdjust="spacing" textLength="43" x="424.5" y="27.9102">vocab:B</text><line style="stroke:#000000;stroke-width:1.5;" x1="369" x2="492" y1="39" y2="39"/><text fill="#000000" font-family="sans-serif" font-size="11" lengthAdjust="spacing" textLength="113" x="374" y="54.4189">vocab:bcd : xsd:double</text><line style="stroke:#000000;stroke-width:1.5;" x1="369" x2="492" y1="60.8359" y2="60.8359"/><!--MD5=[045a90a5c1cad5c7a3c858d8471e2644]
class vocab:C--><rect codeLine="21" fill="#FFFFFF" filter="url(#ftchmmo7h0yzm)" height="89.5078" id="vocab:C" style="stroke:#000000;stroke-width:1.5;" width="95" x="164" y="301"/><ellipse cx="187.55" cy="317" fill="#EB937F" rx="11" ry="11" style="stroke:#000000;stroke-width:1.0;"/><path d="M186.4094,317.7969 L186.4094,320.2969 L190.7375,320.2969 L190.7375,319.375 Q190.7375,318.7656 190.9797,318.5 Q191.2219,318.2344 191.5969,318.2344 Q191.9719,318.2344 192.2063,318.5 Q192.4406,318.7656 192.4406,319.375 L192.4406,322 L184.4406,322 Q183.8156,322 183.5578,321.7656 Q183.3,321.5313 183.3,321.1406 Q183.3,320.7656 183.5656,320.5313 Q183.8313,320.2969 184.4406,320.2969 L184.7063,320.2969 L184.7063,313.6406 L184.4406,313.6406 Q183.8156,313.6406 183.5578,313.4063 Q183.3,313.1719 183.3,312.7813 Q183.3,312.4063 183.5578,312.1719 Q183.8156,311.9375 184.4406,311.9375 L192.0656,311.9375 L192.0656,314.5313 Q192.0656,315.1406 191.8391,315.3984 Q191.6125,315.6563 191.2219,315.6563 Q190.8469,315.6563 190.6125,315.3984 Q190.3781,315.1406 190.3781,314.5313 L190.3781,313.6406 L186.4094,313.6406 L186.4094,316.0938 L187.8938,316.0938 Q187.8938,315.4375 188.0188,315.25 Q188.2844,314.8438 188.7531,314.8438 Q189.1281,314.8438 189.3625,315.1016 Q189.5969,315.3594 189.5969,315.9688 L189.5969,317.9375 Q189.5969,318.4844 189.4719,318.6719 Q189.2063,319.0625 188.7531,319.0625 Q188.2844,319.0625 188.0188,318.6563 Q187.8938,318.4688 187.8938,317.7969 L186.4094,317.7969 Z " fill="#000000"/><text fill="#000000" font-family="sans-serif" font-size="12" lengthAdjust="spacing" textLength="44" x="203.45" y="321.9102">vocab:C</text><line style="stroke:#000000;stroke-width:1.5;" x1="165" x2="258" y1="333" y2="333"/><text fill="#000000" font-family="sans-serif" font-size="11" lengthAdjust="spacing" textLength="83" x="170" y="348.4189">vocab:individual1</text><text fill="#000000" font-family="sans-serif" font-size="11" lengthAdjust="spacing" textLength="83" x="170" y="362.2549">vocab:individual2</text><text fill="#000000" font-family="sans-serif" font-size="11" lengthAdjust="spacing" textLength="83" x="170" y="376.0908">vocab:individual3</text><line style="stroke:#000000;stroke-width:1.5;" x1="165" x2="258" y1="382.5078" y2="382.5078"/><!--MD5=[7c3b3d371e7b28c4ce9e30eb09ef5dba]
class vocab:D--><rect codeLine="27" fill="#FFFFFF" filter="url(#ftchmmo7h0yzm)" height="61.8359" id="vocab:D" style="stroke:#000000;stroke-width:1.5;" width="102" x="448.5" y="154"/><ellipse cx="475.2" cy="170" fill="#ADD1B2" rx="11" ry="11" style="stroke:#000000;stroke-width:1.0;"/><path d="M477.9656,165.875 Q478.1219,165.6563 478.3094,165.5469 Q478.4969,165.4375 478.7156,165.4375 Q479.0906,165.4375 479.325,165.6953 Q479.5594,165.9531 479.5594,166.5625 L479.5594,168.0156 Q479.5594,168.625 479.325,168.8906 Q479.0906,169.1563 478.7156,169.1563 Q478.3719,169.1563 478.1688,168.9531 Q477.9656,168.7656 477.8563,168.25 Q477.8094,167.8906 477.6219,167.7031 Q477.2938,167.3281 476.6844,167.1094 Q476.075,166.8906 475.45,166.8906 Q474.6844,166.8906 474.0516,167.2188 Q473.4188,167.5469 472.9266,168.2969 Q472.4344,169.0469 472.4344,170.0781 L472.4344,171.1719 Q472.4344,172.4063 473.325,173.2266 Q474.2156,174.0469 475.8094,174.0469 Q476.7469,174.0469 477.4031,173.7969 Q477.7938,173.6406 478.2156,173.2031 Q478.4813,172.9375 478.6297,172.8594 Q478.7781,172.7813 478.9813,172.7813 Q479.3094,172.7813 479.5672,173.0391 Q479.825,173.2969 479.825,173.6406 Q479.825,173.9844 479.4813,174.3906 Q478.9813,174.9688 478.1844,175.2969 Q477.1063,175.75 475.8094,175.75 Q474.2938,175.75 473.0906,175.125 Q472.1063,174.625 471.4188,173.5547 Q470.7313,172.4844 470.7313,171.2031 L470.7313,170.0469 Q470.7313,168.7188 471.3484,167.5703 Q471.9656,166.4219 473.0594,165.8047 Q474.1531,165.1875 475.3875,165.1875 Q476.1219,165.1875 476.7703,165.3516 Q477.4188,165.5156 477.9656,165.875 Z " fill="#000000"/><text fill="#000000" font-family="sans-serif" font-size="12" lengthAdjust="spacing" textLength="44" x="491.8" y="174.9102">vocab:D</text><line style="stroke:#000000;stroke-width:1.5;" x1="449.5" x2="549.5" y1="186" y2="186"/><text fill="#000000" font-family="sans-serif" font-size="11" lengthAdjust="spacing" textLength="90" x="454.5" y="201.4189">vocab:def : xsd:int</text><line style="stroke:#000000;stroke-width:1.5;" x1="449.5" x2="549.5" y1="207.8359" y2="207.8359"/><!--MD5=[23c4ac8a3abed7f8ed0f9a393bf4105a]
class vocab:E--><rect codeLine="31" fill="#FFFFFF" filter="url(#ftchmmo7h0yzm)" height="48" id="vocab:E" style="stroke:#000000;stroke-width:1.5;" width="75" x="7" y="161"/><ellipse cx="22" cy="177" fill="#ADD1B2" rx="11" ry="11" style="stroke:#000000;stroke-width:1.0;"/><path d="M24.7656,172.875 Q24.9219,172.6563 25.1094,172.5469 Q25.2969,172.4375 25.5156,172.4375 Q25.8906,172.4375 26.125,172.6953 Q26.3594,172.9531 26.3594,173.5625 L26.3594,175.0156 Q26.3594,175.625 26.125,175.8906 Q25.8906,176.1563 25.5156,176.1563 Q25.1719,176.1563 24.9688,175.9531 Q24.7656,175.7656 24.6563,175.25 Q24.6094,174.8906 24.4219,174.7031 Q24.0938,174.3281 23.4844,174.1094 Q22.875,173.8906 22.25,173.8906 Q21.4844,173.8906 20.8516,174.2188 Q20.2188,174.5469 19.7266,175.2969 Q19.2344,176.0469 19.2344,177.0781 L19.2344,178.1719 Q19.2344,179.4063 20.125,180.2266 Q21.0156,181.0469 22.6094,181.0469 Q23.5469,181.0469 24.2031,180.7969 Q24.5938,180.6406 25.0156,180.2031 Q25.2813,179.9375 25.4297,179.8594 Q25.5781,179.7813 25.7813,179.7813 Q26.1094,179.7813 26.3672,180.0391 Q26.625,180.2969 26.625,180.6406 Q26.625,180.9844 26.2813,181.3906 Q25.7813,181.9688 24.9844,182.2969 Q23.9063,182.75 22.6094,182.75 Q21.0938,182.75 19.8906,182.125 Q18.9063,181.625 18.2188,180.5547 Q17.5313,179.4844 17.5313,178.2031 L17.5313,177.0469 Q17.5313,175.7188 18.1484,174.5703 Q18.7656,173.4219 19.8594,172.8047 Q20.9531,172.1875 22.1875,172.1875 Q22.9219,172.1875 23.5703,172.3516 Q24.2188,172.5156 24.7656,172.875 Z " fill="#000000"/><text fill="#000000" font-family="sans-serif" font-size="12" lengthAdjust="spacing" textLength="43" x="36" y="181.9102">vocab:E</text><line style="stroke:#000000;stroke-width:1.5;" x1="8" x2="81" y1="193" y2="193"/><line style="stroke:#000000;stroke-width:1.5;" x1="8" x2="81" y1="201" y2="201"/><!--MD5=[b14e863664d45195b7395bae9e90c988]
link vocab:A to owl:Thing--><path codeLine="33" d="M289.81,223 C299.39,231.59 307.93,241.61 313.5,253 C349.79,327.28 336.05,359.47 313.5,439 C312.35,443.05 310.85,447.09 309.1,451.05 " fill="none" id="vocab:A-to-owl:Thing" style="stroke:#000000;stroke-width:1.0;"/><polygon fill="none" points="315.21,454.46,299.59,468.78,302.87,447.85,315.21,454.46" style="stroke:#000000;stroke-width:1.0;"/><text fill="#000000" font-family="sans-serif" font-size="13" lengthAdjust="spacing" textLength="92" x="336.5" y="351.4951">rdfs:subClassOf</text><!--MD5=[0ebe4bd6c4f04aa2319ee7c48252f7d3]
link vocab:A to vocab:C--><path codeLine="34" d="M214.99,223.17 C212.31,232.78 209.87,243.18 208.5,253 C206.58,266.82 206.32,281.9 206.81,295.79 " fill="none" id="vocab:A-to-vocab:C" style="stroke:#000000;stroke-width:1.0;"/><polygon fill="#000000" points="207.02,300.85,210.631,291.687,206.8059,295.8546,202.6383,292.0295,207.02,300.85" style="stroke:#000000;stroke-width:1.0;"/><text fill="#000000" font-family="sans-serif" font-size="13" lengthAdjust="spacing" textLength="99" x="209.5" y="267.4951">vocab:FromAToC</text><!--MD5=[a1308392128fca638050cea9a656b6c6]
link vocab:B to vocab:A--><path codeLine="36" d="M367.93,45.23 C329.42,52.26 281.8,67.2 251.5,99 C244.09,106.78 238.93,116.67 235.36,126.93 " fill="none" id="vocab:B-to-vocab:A" style="stroke:#000000;stroke-width:1.0;"/><polygon fill="none" points="242.04,129.06,230.25,146.67,228.49,125.55,242.04,129.06" style="stroke:#000000;stroke-width:1.0;"/><text fill="#000000" font-family="sans-serif" font-size="13" lengthAdjust="spacing" textLength="92" x="252.5" y="113.4951">rdfs:subClassOf</text><!--MD5=[29a7e44c313d4a9a236686d8ce7c0bae]
link vocab:B to vocab:D--><path codeLine="37" d="M376.85,69.08 C359.66,82.75 347.57,99.71 358.5,117 C377.12,146.47 412.62,163.24 443.34,172.63 " fill="none" id="vocab:B-to-vocab:D" style="stroke:#000000;stroke-width:1.0;"/><polygon fill="#000000" points="448.23,174.08,440.7275,167.6994,443.4339,172.6669,438.4664,175.3732,448.23,174.08" style="stroke:#000000;stroke-width:1.0;"/><text fill="#000000" font-family="sans-serif" font-size="13" lengthAdjust="spacing" textLength="96" x="359.5" y="113.4951">vocab:FromBtoD</text><!--MD5=[29a7e44c313d4a9a236686d8ce7c0bae]
link vocab:B to vocab:D--><path codeLine="38" d="M445.81,69.12 C450.58,78.64 455.82,89.23 460.5,99 C468.39,115.45 476.86,133.84 483.89,149.29 " fill="none" id="vocab:B-to-vocab:D-1" style="stroke:#000000;stroke-width:1.0;"/><polygon fill="#000000" points="486.03,153.99,485.9472,144.1415,483.961,149.4382,478.6643,147.4519,486.03,153.99" style="stroke:#000000;stroke-width:1.0;"/><text fill="#000000" font-family="sans-serif" font-size="13" lengthAdjust="spacing" textLength="220" x="468.5" y="113.4951">vocab:FromBtoDButSomehowDifferent</text><!--MD5=[62ac000cd962dc0bb1f9eeb7c9ec0134]
link vocab:D to vocab:B--><path codeLine="43" d="M550.53,180.09 C622.34,172.64 739.98,152.09 697.5,99 C672.97,68.34 568.82,52.26 498.08,44.71 " fill="none" id="vocab:D-to-vocab:B" style="stroke:#000000;stroke-width:1.0;"/><polygon fill="#000000" points="493.05,44.19,501.5906,49.0949,498.0235,44.7045,502.4138,41.1373,493.05,44.19" style="stroke:#000000;stroke-width:1.0;"/><text fill="#000000" font-family="sans-serif" font-size="13" lengthAdjust="spacing" textLength="96" x="706.5" y="113.4951">vocab:FromDtoB</text><!--MD5=[bfc6a93cf45baf37c385ddeba6da3867]
link vocab:C to owl:Thing--><path codeLine="40" d="M206.91,391.11 C206.93,406.81 208.94,424.25 215.5,439 C217.74,444.04 220.62,448.89 223.9,453.48 " fill="none" id="vocab:C-to-owl:Thing" style="stroke:#000000;stroke-width:1.0;"/><polygon fill="none" points="229.45,449.2,237.13,468.95,218.81,458.3,229.45,449.2" style="stroke:#000000;stroke-width:1.0;"/><text fill="#000000" font-family="sans-serif" font-size="13" lengthAdjust="spacing" textLength="92" x="216.5" y="435.4951">rdfs:subClassOf</text><!--MD5=[2620a823bac5b80a94c285537e680868]
link vocab:D to owl:Thing--><path codeLine="42" d="M496.74,216.32 C491.54,259.02 476.97,337.64 437.5,391 C414.75,421.76 380.45,446.5 349.35,464.5 " fill="none" id="vocab:D-to-owl:Thing" style="stroke:#000000;stroke-width:1.0;"/><polygon fill="none" points="352.42,470.8,331.52,474.32,345.67,458.54,352.42,470.8" style="stroke:#000000;stroke-width:1.0;"/><text fill="#000000" font-family="sans-serif" font-size="13" lengthAdjust="spacing" textLength="92" x="479.5" y="351.4951">rdfs:subClassOf</text><!--MD5=[74797b308ec42f0ea4889ddc3314d601]
link vocab:E to owl:Thing--><path codeLine="45" d="M38.27,209.21 C28.82,249.79 15.59,334.7 52.5,391 C85.88,441.92 150.46,469.51 201.74,484.03 " fill="none" id="vocab:E-to-owl:Thing" style="stroke:#000000;stroke-width:1.0;"/><polygon fill="none" points="203.76,477.32,221.35,489.14,200.23,490.87,203.76,477.32" style="stroke:#000000;stroke-width:1.0;"/><text fill="#000000" font-family="sans-serif" font-size="13" lengthAdjust="spacing" textLength="92" x="53.5" y="351.4951">rdfs:subClassOf</text><!--MD5=[0b632a60dc1ee763d9ab9aefb5db2e8d]
link vocab:E to vocab:C--><path codeLine="46" d="M56.66,209.05 C66.99,227.23 83.04,252.52 101.5,271 C118.51,288.03 139.98,303.5 159.43,315.84 " fill="none" id="vocab:E-to-vocab:C" style="stroke:#000000;stroke-width:1.0;"/><polygon fill="#000000" points="163.81,318.58,158.3054,310.413,159.5724,315.9262,154.0593,317.1932,163.81,318.58" style="stroke:#000000;stroke-width:1.0;"/><text fill="#000000" font-family="sans-serif" font-size="13" lengthAdjust="spacing" textLength="96" x="102.5" y="267.4951">vocab:FromEtoC</text><!--MD5=[de3deaa3fdbb5895903fda5595a87212]
@startuml

skinparam class {
    BackgroundColor White
    BorderColor Black
    ArrowColor Black
}

class "owl:Thing" {
    vocab:id : xsd:string
    
}

class "vocab:A" {
    vocab:FromAToC : vocab:C
    vocab:abc : xsd:dateTime
}
class "vocab:B" {
    vocab:bcd : xsd:double
}

enum "vocab:C" {
    vocab:individual1
    vocab:individual2
    vocab:individual3
}

class "vocab:D" {
    vocab:def : xsd:int
}

class "vocab:E" 

"vocab:A" - -|> "owl:Thing" : "rdfs:subClassOf"
"vocab:A" - -> "vocab:C" :  "vocab:FromAToC"

"vocab:B" - -|> "vocab:A" : "rdfs:subClassOf"
"vocab:B" - -> "vocab:D" : "vocab:FromBtoD"
"vocab:B" - -> "vocab:D" : "vocab:FromBtoDButSomehowDifferent"

"vocab:C" - -|> "owl:Thing" : "rdfs:subClassOf"

"vocab:D" - -|> "owl:Thing" : "rdfs:subClassOf"
"vocab:D" - -> "vocab:B" : "vocab:FromDtoB"

"vocab:E" - -|> "owl:Thing" : "rdfs:subClassOf"
"vocab:E" - -> "vocab:C" : "vocab:FromEtoC"

@enduml

PlantUML version 1.2022.0(Tue Jan 11 17:16:42 CET 2022)
(GPL source distribution)
Java Runtime: Java(TM) SE Runtime Environment
JVM: Java HotSpot(TM) 64-Bit Server VM
Default Encoding: Cp1252
Language: nl
Country: NL
--></g></svg>