<?xml version="1.0" encoding="UTF-8" standalone="no"?><svg xmlns="http://www.w3.org/2000/svg" xmlns:xlink="http://www.w3.org/1999/xlink" contentScriptType="application/ecmascript" contentStyleType="text/css" height="471px" preserveAspectRatio="none" style="width:520px;height:471px;background:#FFFFFF;" version="1.1" viewBox="0 0 520 471" width="520px" zoomAndPan="magnify"><defs><filter height="300%" id="f1xv75q823ewb0" width="300%" x="-1" y="-1"><feGaussianBlur result="blurOut" stdDeviation="2.0"/><feColorMatrix in="blurOut" result="blurOut2" type="matrix" values="0 0 0 0 0 0 0 0 0 0 0 0 0 0 0 0 0 0 .4 0"/><feOffset dx="4.0" dy="4.0" in="blurOut2" result="blurOut3"/><feBlend in="SourceGraphic" in2="blurOut3" mode="normal"/></filter></defs><g><!--MD5=[98d9dc0e360e3d4480bcb3e62ce4b807]
class prof:Profile--><rect codeLine="3" fill="#FEFECE" filter="url(#f1xv75q823ewb0)" height="48" id="prof:Profile" style="stroke:#A80036;stroke-width:1.5;" width="91" x="220.5" y="130"/><ellipse cx="235.5" cy="146" fill="#ADD1B2" rx="11" ry="11" style="stroke:#A80036;stroke-width:1.0;"/><path d="M238.2656,141.875 Q238.4219,141.6563 238.6094,141.5469 Q238.7969,141.4375 239.0156,141.4375 Q239.3906,141.4375 239.625,141.6953 Q239.8594,141.9531 239.8594,142.5625 L239.8594,144.0156 Q239.8594,144.625 239.625,144.8906 Q239.3906,145.1563 239.0156,145.1563 Q238.6719,145.1563 238.4688,144.9531 Q238.2656,144.7656 238.1563,144.25 Q238.1094,143.8906 237.9219,143.7031 Q237.5938,143.3281 236.9844,143.1094 Q236.375,142.8906 235.75,142.8906 Q234.9844,142.8906 234.3516,143.2188 Q233.7188,143.5469 233.2266,144.2969 Q232.7344,145.0469 232.7344,146.0781 L232.7344,147.1719 Q232.7344,148.4063 233.625,149.2266 Q234.5156,150.0469 236.1094,150.0469 Q237.0469,150.0469 237.7031,149.7969 Q238.0938,149.6406 238.5156,149.2031 Q238.7813,148.9375 238.9297,148.8594 Q239.0781,148.7813 239.2813,148.7813 Q239.6094,148.7813 239.8672,149.0391 Q240.125,149.2969 240.125,149.6406 Q240.125,149.9844 239.7813,150.3906 Q239.2813,150.9688 238.4844,151.2969 Q237.4063,151.75 236.1094,151.75 Q234.5938,151.75 233.3906,151.125 Q232.4063,150.625 231.7188,149.5547 Q231.0313,148.4844 231.0313,147.2031 L231.0313,146.0469 Q231.0313,144.7188 231.6484,143.5703 Q232.2656,142.4219 233.3594,141.8047 Q234.4531,141.1875 235.6875,141.1875 Q236.4219,141.1875 237.0703,141.3516 Q237.7188,141.5156 238.2656,141.875 Z " fill="#000000"/><text fill="#000000" font-family="sans-serif" font-size="12" lengthAdjust="spacing" textLength="59" x="249.5" y="150.9102">prof:Profile</text><line style="stroke:#A80036;stroke-width:1.5;" x1="221.5" x2="310.5" y1="162" y2="162"/><line style="stroke:#A80036;stroke-width:1.5;" x1="221.5" x2="310.5" y1="170" y2="170"/><!--MD5=[f7c487c12c1a6181bc7ac6b7a88c5913]
class prof:ResourceDescriptor--><rect codeLine="4" fill="#FEFECE" filter="url(#f1xv75q823ewb0)" height="48" id="prof:ResourceDescriptor" style="stroke:#A80036;stroke-width:1.5;" width="167" x="182.5" y="256"/><ellipse cx="197.5" cy="272" fill="#ADD1B2" rx="11" ry="11" style="stroke:#A80036;stroke-width:1.0;"/><path d="M200.2656,267.875 Q200.4219,267.6563 200.6094,267.5469 Q200.7969,267.4375 201.0156,267.4375 Q201.3906,267.4375 201.625,267.6953 Q201.8594,267.9531 201.8594,268.5625 L201.8594,270.0156 Q201.8594,270.625 201.625,270.8906 Q201.3906,271.1563 201.0156,271.1563 Q200.6719,271.1563 200.4688,270.9531 Q200.2656,270.7656 200.1563,270.25 Q200.1094,269.8906 199.9219,269.7031 Q199.5938,269.3281 198.9844,269.1094 Q198.375,268.8906 197.75,268.8906 Q196.9844,268.8906 196.3516,269.2188 Q195.7188,269.5469 195.2266,270.2969 Q194.7344,271.0469 194.7344,272.0781 L194.7344,273.1719 Q194.7344,274.4063 195.625,275.2266 Q196.5156,276.0469 198.1094,276.0469 Q199.0469,276.0469 199.7031,275.7969 Q200.0938,275.6406 200.5156,275.2031 Q200.7813,274.9375 200.9297,274.8594 Q201.0781,274.7813 201.2813,274.7813 Q201.6094,274.7813 201.8672,275.0391 Q202.125,275.2969 202.125,275.6406 Q202.125,275.9844 201.7813,276.3906 Q201.2813,276.9688 200.4844,277.2969 Q199.4063,277.75 198.1094,277.75 Q196.5938,277.75 195.3906,277.125 Q194.4063,276.625 193.7188,275.5547 Q193.0313,274.4844 193.0313,273.2031 L193.0313,272.0469 Q193.0313,270.7188 193.6484,269.5703 Q194.2656,268.4219 195.3594,267.8047 Q196.4531,267.1875 197.6875,267.1875 Q198.4219,267.1875 199.0703,267.3516 Q199.7188,267.5156 200.2656,267.875 Z " fill="#000000"/><text fill="#000000" font-family="sans-serif" font-size="12" lengthAdjust="spacing" textLength="135" x="211.5" y="276.9102">prof:ResourceDescriptor</text><line style="stroke:#A80036;stroke-width:1.5;" x1="183.5" x2="348.5" y1="288" y2="288"/><line style="stroke:#A80036;stroke-width:1.5;" x1="183.5" x2="348.5" y1="296" y2="296"/><!--MD5=[ac1944d5ff8bac963315f1a5e9b43d3c]
class rdfs:Resource--><rect codeLine="5" fill="#FEFECE" filter="url(#f1xv75q823ewb0)" height="48" id="rdfs:Resource" style="stroke:#A80036;stroke-width:1.5;" width="110" x="7" y="396"/><ellipse cx="22" cy="412" fill="#ADD1B2" rx="11" ry="11" style="stroke:#A80036;stroke-width:1.0;"/><path d="M24.7656,407.875 Q24.9219,407.6563 25.1094,407.5469 Q25.2969,407.4375 25.5156,407.4375 Q25.8906,407.4375 26.125,407.6953 Q26.3594,407.9531 26.3594,408.5625 L26.3594,410.0156 Q26.3594,410.625 26.125,410.8906 Q25.8906,411.1563 25.5156,411.1563 Q25.1719,411.1563 24.9688,410.9531 Q24.7656,410.7656 24.6563,410.25 Q24.6094,409.8906 24.4219,409.7031 Q24.0938,409.3281 23.4844,409.1094 Q22.875,408.8906 22.25,408.8906 Q21.4844,408.8906 20.8516,409.2188 Q20.2188,409.5469 19.7266,410.2969 Q19.2344,411.0469 19.2344,412.0781 L19.2344,413.1719 Q19.2344,414.4063 20.125,415.2266 Q21.0156,416.0469 22.6094,416.0469 Q23.5469,416.0469 24.2031,415.7969 Q24.5938,415.6406 25.0156,415.2031 Q25.2813,414.9375 25.4297,414.8594 Q25.5781,414.7813 25.7813,414.7813 Q26.1094,414.7813 26.3672,415.0391 Q26.625,415.2969 26.625,415.6406 Q26.625,415.9844 26.2813,416.3906 Q25.7813,416.9688 24.9844,417.2969 Q23.9063,417.75 22.6094,417.75 Q21.0938,417.75 19.8906,417.125 Q18.9063,416.625 18.2188,415.5547 Q17.5313,414.4844 17.5313,413.2031 L17.5313,412.0469 Q17.5313,410.7188 18.1484,409.5703 Q18.7656,408.4219 19.8594,407.8047 Q20.9531,407.1875 22.1875,407.1875 Q22.9219,407.1875 23.5703,407.3516 Q24.2188,407.5156 24.7656,407.875 Z " fill="#000000"/><text fill="#000000" font-family="sans-serif" font-size="12" lengthAdjust="spacing" textLength="78" x="36" y="416.9102">rdfs:Resource</text><line style="stroke:#A80036;stroke-width:1.5;" x1="8" x2="116" y1="428" y2="428"/><line style="stroke:#A80036;stroke-width:1.5;" x1="8" x2="116" y1="436" y2="436"/><!--MD5=[faa43be053ed295717d2b3e42260b484]
class dct:MediaTypeOrExtend--><rect codeLine="7" fill="#FEFECE" filter="url(#f1xv75q823ewb0)" height="48" id="dct:MediaTypeOrExtend" style="stroke:#A80036;stroke-width:1.5;" width="160" x="346" y="396"/><ellipse cx="361" cy="412" fill="#ADD1B2" rx="11" ry="11" style="stroke:#A80036;stroke-width:1.0;"/><path d="M363.7656,407.875 Q363.9219,407.6563 364.1094,407.5469 Q364.2969,407.4375 364.5156,407.4375 Q364.8906,407.4375 365.125,407.6953 Q365.3594,407.9531 365.3594,408.5625 L365.3594,410.0156 Q365.3594,410.625 365.125,410.8906 Q364.8906,411.1563 364.5156,411.1563 Q364.1719,411.1563 363.9688,410.9531 Q363.7656,410.7656 363.6563,410.25 Q363.6094,409.8906 363.4219,409.7031 Q363.0938,409.3281 362.4844,409.1094 Q361.875,408.8906 361.25,408.8906 Q360.4844,408.8906 359.8516,409.2188 Q359.2188,409.5469 358.7266,410.2969 Q358.2344,411.0469 358.2344,412.0781 L358.2344,413.1719 Q358.2344,414.4063 359.125,415.2266 Q360.0156,416.0469 361.6094,416.0469 Q362.5469,416.0469 363.2031,415.7969 Q363.5938,415.6406 364.0156,415.2031 Q364.2813,414.9375 364.4297,414.8594 Q364.5781,414.7813 364.7813,414.7813 Q365.1094,414.7813 365.3672,415.0391 Q365.625,415.2969 365.625,415.6406 Q365.625,415.9844 365.2813,416.3906 Q364.7813,416.9688 363.9844,417.2969 Q362.9063,417.75 361.6094,417.75 Q360.0938,417.75 358.8906,417.125 Q357.9063,416.625 357.2188,415.5547 Q356.5313,414.4844 356.5313,413.2031 L356.5313,412.0469 Q356.5313,410.7188 357.1484,409.5703 Q357.7656,408.4219 358.8594,407.8047 Q359.9531,407.1875 361.1875,407.1875 Q361.9219,407.1875 362.5703,407.3516 Q363.2188,407.5156 363.7656,407.875 Z " fill="#000000"/><text fill="#000000" font-family="sans-serif" font-size="12" lengthAdjust="spacing" textLength="128" x="375" y="416.9102">dct:MediaTypeOrExtend</text><line style="stroke:#A80036;stroke-width:1.5;" x1="347" x2="505" y1="428" y2="428"/><line style="stroke:#A80036;stroke-width:1.5;" x1="347" x2="505" y1="436" y2="436"/><!--MD5=[b0df360c8369932153c1afb2d9e6e4b4]
class prof:ResourceRole--><rect codeLine="8" fill="#FEFECE" filter="url(#f1xv75q823ewb0)" height="75.6719" id="prof:ResourceRole" style="stroke:#A80036;stroke-width:1.5;" width="136" x="167" y="382"/><ellipse cx="182" cy="398" fill="#EB937F" rx="11" ry="11" style="stroke:#A80036;stroke-width:1.0;"/><path d="M180.8594,398.7969 L180.8594,401.2969 L185.1875,401.2969 L185.1875,400.375 Q185.1875,399.7656 185.4297,399.5 Q185.6719,399.2344 186.0469,399.2344 Q186.4219,399.2344 186.6563,399.5 Q186.8906,399.7656 186.8906,400.375 L186.8906,403 L178.8906,403 Q178.2656,403 178.0078,402.7656 Q177.75,402.5313 177.75,402.1406 Q177.75,401.7656 178.0156,401.5313 Q178.2813,401.2969 178.8906,401.2969 L179.1563,401.2969 L179.1563,394.6406 L178.8906,394.6406 Q178.2656,394.6406 178.0078,394.4063 Q177.75,394.1719 177.75,393.7813 Q177.75,393.4063 178.0078,393.1719 Q178.2656,392.9375 178.8906,392.9375 L186.5156,392.9375 L186.5156,395.5313 Q186.5156,396.1406 186.2891,396.3984 Q186.0625,396.6563 185.6719,396.6563 Q185.2969,396.6563 185.0625,396.3984 Q184.8281,396.1406 184.8281,395.5313 L184.8281,394.6406 L180.8594,394.6406 L180.8594,397.0938 L182.3438,397.0938 Q182.3438,396.4375 182.4688,396.25 Q182.7344,395.8438 183.2031,395.8438 Q183.5781,395.8438 183.8125,396.1016 Q184.0469,396.3594 184.0469,396.9688 L184.0469,398.9375 Q184.0469,399.4844 183.9219,399.6719 Q183.6563,400.0625 183.2031,400.0625 Q182.7344,400.0625 182.4688,399.6563 Q182.3438,399.4688 182.3438,398.7969 L180.8594,398.7969 Z " fill="#000000"/><text fill="#000000" font-family="sans-serif" font-size="12" lengthAdjust="spacing" textLength="104" x="196" y="402.9102">prof:ResourceRole</text><line style="stroke:#A80036;stroke-width:1.5;" x1="168" x2="302" y1="414" y2="414"/><text fill="#000000" font-family="sans-serif" font-size="11" lengthAdjust="spacing" textLength="69" x="173" y="429.4189">role:constraint</text><text fill="#000000" font-family="sans-serif" font-size="11" lengthAdjust="spacing" textLength="75" x="173" y="443.2549">role:vocabulary</text><line style="stroke:#A80036;stroke-width:1.5;" x1="168" x2="302" y1="449.6719" y2="449.6719"/><!--MD5=[f071ecb23dbf121833784480fda18997]
class owl:Thing--><a href="http://www.w3.org/2002/07/owl#Thing" target="_top" title="http://www.w3.org/2002/07/owl#Thing" xlink:actuate="onRequest" xlink:href="http://www.w3.org/2002/07/owl#Thing" xlink:show="new" xlink:title="http://www.w3.org/2002/07/owl#Thing" xlink:type="simple"><rect codeLine="13" fill="#FEFECE" filter="url(#f1xv75q823ewb0)" height="61.8359" id="owl:Thing" style="stroke:#A80036;stroke-width:1.5;" width="149" x="92.5" y="7"/><ellipse cx="136.75" cy="23" fill="#A9DCDF" rx="11" ry="11" style="stroke:#A80036;stroke-width:1.0;"/><path d="M138.9375,24.7656 L134.7969,24.7656 L134.375,25.7969 L134.7969,25.7969 Q135.4063,25.7969 135.6719,26.0313 Q135.9375,26.2656 135.9375,26.6563 Q135.9375,27.0313 135.6719,27.2656 Q135.4063,27.5 134.7969,27.5 L132.5,27.5 Q131.8906,27.5 131.6328,27.2656 Q131.375,27.0313 131.375,26.6406 Q131.375,26.2656 131.6484,26.0234 Q131.9219,25.7813 132.5469,25.7969 L135.2188,19.1406 L134.1094,19.1406 Q133.5,19.1406 133.2344,18.9063 Q132.9688,18.6719 132.9688,18.2813 Q132.9688,17.9063 133.2344,17.6719 Q133.5,17.4375 134.1094,17.4375 L137.7813,17.4375 L141.1719,25.7969 Q141.7656,25.7969 141.9531,25.9375 Q142.3438,26.2031 142.3438,26.6563 Q142.3438,27.0313 142.0859,27.2656 Q141.8281,27.5 141.2188,27.5 L138.9219,27.5 Q138.3125,27.5 138.0469,27.2656 Q137.7813,27.0313 137.7813,26.6406 Q137.7813,26.2656 138.0469,26.0313 Q138.3125,25.7969 138.9219,25.7969 L139.3438,25.7969 L138.9375,24.7656 Z M138.2188,23.0625 L136.8594,19.6875 L135.4844,23.0625 L138.2188,23.0625 Z " fill="#000000"/><text fill="#000000" font-family="sans-serif" font-size="12" font-style="italic" lengthAdjust="spacing" textLength="52" x="157.25" y="27.9102">owl:Thing</text><line style="stroke:#A80036;stroke-width:1.5;" x1="93.5" x2="240.5" y1="39" y2="39"/></a><a href="http://www.w3.org/2000/01/rdf-schema#comment" target="_top" title="http://www.w3.org/2000/01/rdf-schema#comment" xlink:actuate="onRequest" xlink:href="http://www.w3.org/2000/01/rdf-schema#comment" xlink:show="new" xlink:title="http://www.w3.org/2000/01/rdf-schema#comment" xlink:type="simple"><text fill="#0000FF" font-family="sans-serif" font-size="11" lengthAdjust="spacing" text-decoration="underline" textLength="66" x="98.5" y="54.4189">rdfs:comment</text></a><text fill="#000000" font-family="sans-serif" font-size="11" lengthAdjust="spacing" textLength="62" x="173.5" y="54.4189">: "xsd:string"</text><line style="stroke:#A80036;stroke-width:1.5;" x1="93.5" x2="240.5" y1="60.8359" y2="60.8359"/><!--MD5=[439e6fb2db1f024434be0c0bf308cfd1]
reverse link owl:Thing to prof:Profile--><path codeLine="17" d="M206.74,84.76 C220.19,100.24 234.63,116.88 245.89,129.84 " fill="none" id="owl:Thing-backto-prof:Profile" style="stroke:#A80036;stroke-width:1.0;"/><polygon fill="none" points="201.1,88.94,193.27,69.25,211.67,79.76,201.1,88.94" style="stroke:#A80036;stroke-width:1.0;"/><!--MD5=[7cb126ce4405e5a26f78039a3be64388]
reverse link owl:Thing to rdfs:Resource--><path codeLine="18" d="M128.72,85.52 C119.25,99.13 110.09,114.54 104,130 C67.14,223.65 62.19,345.82 61.83,395.98 " fill="none" id="owl:Thing-backto-rdfs:Resource" style="stroke:#A80036;stroke-width:1.0;"/><polygon fill="none" points="123.15,81.28,140.66,69.36,134.41,89.6,123.15,81.28" style="stroke:#A80036;stroke-width:1.0;"/><!--MD5=[218be0136f4fe84bb1a3155deec73446]
reverse link owl:Thing to prof:ResourceDescriptor--><path codeLine="19" d="M176.05,88.78 C181.91,115.83 190.76,149.48 203,178 C215.15,206.29 234.5,235.87 248.55,255.65 " fill="none" id="owl:Thing-backto-prof:ResourceDescriptor" style="stroke:#A80036;stroke-width:1.0;"/><polygon fill="none" points="169.18,90.14,172.06,69.15,182.9,87.36,169.18,90.14" style="stroke:#A80036;stroke-width:1.0;"/><!--MD5=[68abb5bdb75cccacb8e16bb65f21024e]
reverse link owl:Thing to prof:ResourceRole--><path codeLine="20" d="M142.52,87.69 C113.74,152.4 75.53,268.29 123,352 C132.95,369.54 149.51,382.98 166.9,393.06 " fill="none" id="owl:Thing-backto-prof:ResourceRole" style="stroke:#A80036;stroke-width:1.0;"/><polygon fill="none" points="136.27,84.53,151.05,69.34,148.97,90.43,136.27,84.53" style="stroke:#A80036;stroke-width:1.0;"/><!--MD5=[be785a341848f6279022a105faeb2569]
reverse link owl:Thing to dct:MediaTypeOrExtend--><path codeLine="21" d="M255.79,78.35 C281.26,92.3 307.84,109.67 329,130 C400.98,199.17 403.89,236.02 423,334 C427.01,354.58 427.5,378.48 427.13,395.69 " fill="none" id="owl:Thing-backto-dct:MediaTypeOrExtend" style="stroke:#A80036;stroke-width:1.0;"/><polygon fill="none" points="252.45,84.5,237.97,69.02,258.94,72.09,252.45,84.5" style="stroke:#A80036;stroke-width:1.0;"/><!--MD5=[5349ab306e7468884c7eda5aef427668]
link prof:Profile to prof:ResourceDescriptor--><path codeLine="23" d="M266,178.03 C266,198.52 266,228.56 266,250.55 " fill="none" id="prof:Profile-to-prof:ResourceDescriptor" style="stroke:#A80036;stroke-width:1.0;"/><polygon fill="#A80036" points="266,255.67,270,246.67,266,250.67,262,246.67,266,255.67" style="stroke:#A80036;stroke-width:1.0;"/><text fill="#000000" font-family="sans-serif" font-size="13" lengthAdjust="spacing" textLength="101" x="267" y="222.4951">prof:hasResource</text><!--MD5=[fbaf52edbd2de199c96253634074dfa5]
link prof:ResourceDescriptor to dct:MediaTypeOrExtend--><path codeLine="24" d="M297.42,304.12 C309.38,313.19 323.02,323.84 335,334 C357.08,352.71 380.95,375.1 398.7,392.2 " fill="none" id="prof:ResourceDescriptor-to-dct:MediaTypeOrExtend" style="stroke:#A80036;stroke-width:1.0;"/><polygon fill="#A80036" points="402.62,395.99,398.9179,386.8634,399.0208,392.5193,393.3649,392.6222,402.62,395.99" style="stroke:#A80036;stroke-width:1.0;"/><text fill="#000000" font-family="sans-serif" font-size="13" lengthAdjust="spacing" textLength="58" x="356" y="348.4951">dct:format</text><!--MD5=[f906da954b64141d65c26b675197e854]
link prof:ResourceDescriptor to prof:ResourceRole--><path codeLine="25" d="M260.81,304.1 C256.37,323.87 249.86,352.84 244.49,376.75 " fill="none" id="prof:ResourceDescriptor-to-prof:ResourceRole" style="stroke:#A80036;stroke-width:1.0;"/><polygon fill="#A80036" points="243.36,381.77,249.2391,373.8684,244.4582,376.8921,241.4345,372.1112,243.36,381.77" style="stroke:#A80036;stroke-width:1.0;"/><text fill="#000000" font-family="sans-serif" font-size="13" lengthAdjust="spacing" textLength="72" x="254" y="348.4951">prof:hasRole</text><!--MD5=[6fea7dbaffca37d8547cc16f6b4dabd9]
link prof:ResourceDescriptor to rdfs:Resource--><path codeLine="26" d="M207.78,304.1 C189.59,312.41 169.87,322.58 153,334 C128.37,350.67 103.92,373.98 86.58,391.97 " fill="none" id="prof:ResourceDescriptor-to-rdfs:Resource" style="stroke:#A80036;stroke-width:1.0;"/><polygon fill="#A80036" points="82.77,395.95,91.8816,392.2111,86.2261,392.3368,86.1004,386.6813,82.77,395.95" style="stroke:#A80036;stroke-width:1.0;"/><text fill="#000000" font-family="sans-serif" font-size="13" lengthAdjust="spacing" textLength="87" x="154" y="348.4951">prof:hasArtifact</text><!--MD5=[d3b9b0a3af847a13607074bbe4f80cdd]
@startuml


class "prof:Profile"
class "prof:ResourceDescriptor"
class "rdfs:Resource"

class "dct:MediaTypeOrExtend"
enum "prof:ResourceRole" {
    role:constraint
    role:vocabulary
}

abstract class "owl:Thing" [[http://www.w3.org/2002/07/owl#Thing]]{ 
 [[http://www.w3.org/2000/01/rdf-schema#comment rdfs:comment ]]  : "xsd:string" 
}

"owl:Thing"<|- - "prof:Profile"
"owl:Thing"<|- - "rdfs:Resource"
"owl:Thing"<|- - "prof:ResourceDescriptor"
"owl:Thing"<|- - "prof:ResourceRole"
"owl:Thing"<|- - "dct:MediaTypeOrExtend"

"prof:Profile" - ->  "prof:ResourceDescriptor" : "prof:hasResource"
"prof:ResourceDescriptor" - ->  "dct:MediaTypeOrExtend" : "dct:format"
"prof:ResourceDescriptor" - ->  "prof:ResourceRole" : "prof:hasRole"
"prof:ResourceDescriptor" - ->  "rdfs:Resource" : "prof:hasArtifact"


@enduml

PlantUML version 1.2021.7(Sun May 23 14:40:07 CEST 2021)
(GPL source distribution)
Java Runtime: Java(TM) SE Runtime Environment
JVM: Java HotSpot(TM) 64-Bit Server VM
Default Encoding: Cp1252
Language: nl
Country: NL
--></g></svg>