<?xml version="1.0" encoding="UTF-8" standalone="no"?><svg xmlns="http://www.w3.org/2000/svg" xmlns:xlink="http://www.w3.org/1999/xlink" contentScriptType="application/ecmascript" contentStyleType="text/css" height="458px" preserveAspectRatio="none" style="width:1219px;height:458px;background:#FFFFFF;" version="1.1" viewBox="0 0 1219 458" width="1219px" zoomAndPan="magnify"><defs><filter height="300%" id="f8s4erdbfjj04" width="300%" x="-1" y="-1"><feGaussianBlur result="blurOut" stdDeviation="2.0"/><feColorMatrix in="blurOut" result="blurOut2" type="matrix" values="0 0 0 0 0 0 0 0 0 0 0 0 0 0 0 0 0 0 .4 0"/><feOffset dx="4.0" dy="4.0" in="blurOut2" result="blurOut3"/><feBlend in="SourceGraphic" in2="blurOut3" mode="normal"/></filter></defs><g><!--MD5=[f5ce388bc7d1e648277699e93003c1c4]
class owl:Class--><a href="http://www.w3.org/2000/01/rdf-schema#Class" target="_top" title="http://www.w3.org/2000/01/rdf-schema#Class" xlink:actuate="onRequest" xlink:href="http://www.w3.org/2000/01/rdf-schema#Class" xlink:show="new" xlink:title="http://www.w3.org/2000/01/rdf-schema#Class" xlink:type="simple"><rect codeLine="2" fill="#FEFECE" filter="url(#f8s4erdbfjj04)" height="48" id="owl:Class" style="stroke:#A80036;stroke-width:1.5;" width="87" x="112.46" y="396"/><ellipse cx="127.46" cy="412" fill="#ADD1B2" rx="11" ry="11" style="stroke:#A80036;stroke-width:1.0;"/><path d="M130.2256,407.875 Q130.3819,407.6563 130.5694,407.5469 Q130.7569,407.4375 130.9756,407.4375 Q131.3506,407.4375 131.585,407.6953 Q131.8194,407.9531 131.8194,408.5625 L131.8194,410.0156 Q131.8194,410.625 131.585,410.8906 Q131.3506,411.1563 130.9756,411.1563 Q130.6319,411.1563 130.4288,410.9531 Q130.2256,410.7656 130.1163,410.25 Q130.0694,409.8906 129.8819,409.7031 Q129.5538,409.3281 128.9444,409.1094 Q128.335,408.8906 127.71,408.8906 Q126.9444,408.8906 126.3116,409.2188 Q125.6788,409.5469 125.1866,410.2969 Q124.6944,411.0469 124.6944,412.0781 L124.6944,413.1719 Q124.6944,414.4063 125.585,415.2266 Q126.4756,416.0469 128.0694,416.0469 Q129.0069,416.0469 129.6631,415.7969 Q130.0538,415.6406 130.4756,415.2031 Q130.7413,414.9375 130.8897,414.8594 Q131.0381,414.7813 131.2413,414.7813 Q131.5694,414.7813 131.8272,415.0391 Q132.085,415.2969 132.085,415.6406 Q132.085,415.9844 131.7413,416.3906 Q131.2413,416.9688 130.4444,417.2969 Q129.3663,417.75 128.0694,417.75 Q126.5538,417.75 125.3506,417.125 Q124.3663,416.625 123.6788,415.5547 Q122.9913,414.4844 122.9913,413.2031 L122.9913,412.0469 Q122.9913,410.7188 123.6084,409.5703 Q124.2256,408.4219 125.3194,407.8047 Q126.4131,407.1875 127.6475,407.1875 Q128.3819,407.1875 129.0303,407.3516 Q129.6788,407.5156 130.2256,407.875 Z " fill="#000000"/><text fill="#000000" font-family="sans-serif" font-size="12" lengthAdjust="spacing" textLength="55" x="141.46" y="416.9102">owl:Class</text><line style="stroke:#A80036;stroke-width:1.5;" x1="113.46" x2="198.46" y1="428" y2="428"/><line style="stroke:#A80036;stroke-width:1.5;" x1="113.46" x2="198.46" y1="436" y2="436"/></a><!--MD5=[26d97e0ce71724a026b94e990c41e6be]
class owl:DatatypeProperty--><a href="http://www.w3.org/2002/07/owl#DatatypeProperty" target="_top" title="http://www.w3.org/2002/07/owl#DatatypeProperty" xlink:actuate="onRequest" xlink:href="http://www.w3.org/2002/07/owl#DatatypeProperty" xlink:show="new" xlink:title="http://www.w3.org/2002/07/owl#DatatypeProperty" xlink:type="simple"><rect codeLine="3" fill="#FEFECE" filter="url(#f8s4erdbfjj04)" height="48" id="owl:DatatypeProperty" style="stroke:#A80036;stroke-width:1.5;" width="147" x="583.46" y="270"/><ellipse cx="598.46" cy="286" fill="#ADD1B2" rx="11" ry="11" style="stroke:#A80036;stroke-width:1.0;"/><path d="M601.2256,281.875 Q601.3819,281.6563 601.5694,281.5469 Q601.7569,281.4375 601.9756,281.4375 Q602.3506,281.4375 602.585,281.6953 Q602.8194,281.9531 602.8194,282.5625 L602.8194,284.0156 Q602.8194,284.625 602.585,284.8906 Q602.3506,285.1563 601.9756,285.1563 Q601.6319,285.1563 601.4287,284.9531 Q601.2256,284.7656 601.1162,284.25 Q601.0694,283.8906 600.8819,283.7031 Q600.5537,283.3281 599.9444,283.1094 Q599.335,282.8906 598.71,282.8906 Q597.9444,282.8906 597.3116,283.2188 Q596.6787,283.5469 596.1866,284.2969 Q595.6944,285.0469 595.6944,286.0781 L595.6944,287.1719 Q595.6944,288.4063 596.585,289.2266 Q597.4756,290.0469 599.0694,290.0469 Q600.0069,290.0469 600.6631,289.7969 Q601.0537,289.6406 601.4756,289.2031 Q601.7412,288.9375 601.8897,288.8594 Q602.0381,288.7813 602.2412,288.7813 Q602.5694,288.7813 602.8272,289.0391 Q603.085,289.2969 603.085,289.6406 Q603.085,289.9844 602.7412,290.3906 Q602.2412,290.9688 601.4444,291.2969 Q600.3662,291.75 599.0694,291.75 Q597.5537,291.75 596.3506,291.125 Q595.3662,290.625 594.6787,289.5547 Q593.9912,288.4844 593.9912,287.2031 L593.9912,286.0469 Q593.9912,284.7188 594.6084,283.5703 Q595.2256,282.4219 596.3194,281.8047 Q597.4131,281.1875 598.6475,281.1875 Q599.3819,281.1875 600.0303,281.3516 Q600.6787,281.5156 601.2256,281.875 Z " fill="#000000"/><text fill="#000000" font-family="sans-serif" font-size="12" lengthAdjust="spacing" textLength="115" x="612.46" y="290.9102">owl:DatatypeProperty</text><line style="stroke:#A80036;stroke-width:1.5;" x1="584.46" x2="729.46" y1="302" y2="302"/><line style="stroke:#A80036;stroke-width:1.5;" x1="584.46" x2="729.46" y1="310" y2="310"/></a><!--MD5=[6be91a87ff57af43446cece8d03445bb]
class owl:ObjectProperty--><a href="http://www.w3.org/2002/07/owl#ObjectProperty" target="_top" title="http://www.w3.org/2002/07/owl#ObjectProperty" xlink:actuate="onRequest" xlink:href="http://www.w3.org/2002/07/owl#ObjectProperty" xlink:show="new" xlink:title="http://www.w3.org/2002/07/owl#ObjectProperty" xlink:type="simple"><rect codeLine="4" fill="#FEFECE" filter="url(#f8s4erdbfjj04)" height="48" id="owl:ObjectProperty" style="stroke:#A80036;stroke-width:1.5;" width="134" x="163.96" y="270"/><ellipse cx="178.96" cy="286" fill="#ADD1B2" rx="11" ry="11" style="stroke:#A80036;stroke-width:1.0;"/><path d="M181.7256,281.875 Q181.8819,281.6563 182.0694,281.5469 Q182.2569,281.4375 182.4756,281.4375 Q182.8506,281.4375 183.085,281.6953 Q183.3194,281.9531 183.3194,282.5625 L183.3194,284.0156 Q183.3194,284.625 183.085,284.8906 Q182.8506,285.1563 182.4756,285.1563 Q182.1319,285.1563 181.9288,284.9531 Q181.7256,284.7656 181.6163,284.25 Q181.5694,283.8906 181.3819,283.7031 Q181.0538,283.3281 180.4444,283.1094 Q179.835,282.8906 179.21,282.8906 Q178.4444,282.8906 177.8116,283.2188 Q177.1788,283.5469 176.6866,284.2969 Q176.1944,285.0469 176.1944,286.0781 L176.1944,287.1719 Q176.1944,288.4063 177.085,289.2266 Q177.9756,290.0469 179.5694,290.0469 Q180.5069,290.0469 181.1631,289.7969 Q181.5538,289.6406 181.9756,289.2031 Q182.2413,288.9375 182.3897,288.8594 Q182.5381,288.7813 182.7413,288.7813 Q183.0694,288.7813 183.3272,289.0391 Q183.585,289.2969 183.585,289.6406 Q183.585,289.9844 183.2413,290.3906 Q182.7413,290.9688 181.9444,291.2969 Q180.8663,291.75 179.5694,291.75 Q178.0538,291.75 176.8506,291.125 Q175.8663,290.625 175.1788,289.5547 Q174.4913,288.4844 174.4913,287.2031 L174.4913,286.0469 Q174.4913,284.7188 175.1084,283.5703 Q175.7256,282.4219 176.8194,281.8047 Q177.9131,281.1875 179.1475,281.1875 Q179.8819,281.1875 180.5303,281.3516 Q181.1788,281.5156 181.7256,281.875 Z " fill="#000000"/><text fill="#000000" font-family="sans-serif" font-size="12" lengthAdjust="spacing" textLength="102" x="192.96" y="290.9102">owl:ObjectProperty</text><line style="stroke:#A80036;stroke-width:1.5;" x1="164.96" x2="296.96" y1="302" y2="302"/><line style="stroke:#A80036;stroke-width:1.5;" x1="164.96" x2="296.96" y1="310" y2="310"/></a><!--MD5=[f5d6fba28c9acdd96eb01d07ddcb0e48]
class rdf:Property--><a href="http://www.w3.org/1999/02/22-rdf-syntax-ns#Property" target="_top" title="http://www.w3.org/1999/02/22-rdf-syntax-ns#Property" xlink:actuate="onRequest" xlink:href="http://www.w3.org/1999/02/22-rdf-syntax-ns#Property" xlink:show="new" xlink:title="http://www.w3.org/1999/02/22-rdf-syntax-ns#Property" xlink:type="simple"><rect codeLine="5" fill="#FEFECE" filter="url(#f8s4erdbfjj04)" height="48" id="rdf:Property" style="stroke:#A80036;stroke-width:1.5;" width="95" x="431.46" y="144"/><ellipse cx="446.46" cy="160" fill="#A9DCDF" rx="11" ry="11" style="stroke:#A80036;stroke-width:1.0;"/><path d="M448.6475,161.7656 L444.5069,161.7656 L444.085,162.7969 L444.5069,162.7969 Q445.1163,162.7969 445.3819,163.0313 Q445.6475,163.2656 445.6475,163.6563 Q445.6475,164.0313 445.3819,164.2656 Q445.1163,164.5 444.5069,164.5 L442.21,164.5 Q441.6006,164.5 441.3428,164.2656 Q441.085,164.0313 441.085,163.6406 Q441.085,163.2656 441.3584,163.0234 Q441.6319,162.7813 442.2569,162.7969 L444.9288,156.1406 L443.8194,156.1406 Q443.21,156.1406 442.9444,155.9063 Q442.6788,155.6719 442.6788,155.2813 Q442.6788,154.9063 442.9444,154.6719 Q443.21,154.4375 443.8194,154.4375 L447.4913,154.4375 L450.8819,162.7969 Q451.4756,162.7969 451.6631,162.9375 Q452.0538,163.2031 452.0538,163.6563 Q452.0538,164.0313 451.7959,164.2656 Q451.5381,164.5 450.9288,164.5 L448.6319,164.5 Q448.0225,164.5 447.7569,164.2656 Q447.4913,164.0313 447.4913,163.6406 Q447.4913,163.2656 447.7569,163.0313 Q448.0225,162.7969 448.6319,162.7969 L449.0538,162.7969 L448.6475,161.7656 Z M447.9288,160.0625 L446.5694,156.6875 L445.1944,160.0625 L447.9288,160.0625 Z " fill="#000000"/><text fill="#000000" font-family="sans-serif" font-size="12" font-style="italic" lengthAdjust="spacing" textLength="63" x="460.46" y="164.9102">rdf:Property</text><line style="stroke:#A80036;stroke-width:1.5;" x1="432.46" x2="525.46" y1="176" y2="176"/><line style="stroke:#A80036;stroke-width:1.5;" x1="432.46" x2="525.46" y1="184" y2="184"/></a><!--MD5=[343ed68f36560b8702214b37b3e3f531]
class rdfs:Datatype--><a href="http://www.w3.org/2000/01/rdf-schema#Datatype" target="_top" title="http://www.w3.org/2000/01/rdf-schema#Datatype" xlink:actuate="onRequest" xlink:href="http://www.w3.org/2000/01/rdf-schema#Datatype" xlink:show="new" xlink:title="http://www.w3.org/2000/01/rdf-schema#Datatype" xlink:type="simple"><rect codeLine="6" fill="#FEFECE" filter="url(#f8s4erdbfjj04)" height="48" id="rdfs:Datatype" style="stroke:#A80036;stroke-width:1.5;" width="104" x="679.96" y="396"/><ellipse cx="694.96" cy="412" fill="#ADD1B2" rx="11" ry="11" style="stroke:#A80036;stroke-width:1.0;"/><path d="M697.7256,407.875 Q697.8819,407.6563 698.0694,407.5469 Q698.2569,407.4375 698.4756,407.4375 Q698.8506,407.4375 699.085,407.6953 Q699.3194,407.9531 699.3194,408.5625 L699.3194,410.0156 Q699.3194,410.625 699.085,410.8906 Q698.8506,411.1563 698.4756,411.1563 Q698.1319,411.1563 697.9287,410.9531 Q697.7256,410.7656 697.6162,410.25 Q697.5694,409.8906 697.3819,409.7031 Q697.0537,409.3281 696.4444,409.1094 Q695.835,408.8906 695.21,408.8906 Q694.4444,408.8906 693.8116,409.2188 Q693.1787,409.5469 692.6866,410.2969 Q692.1944,411.0469 692.1944,412.0781 L692.1944,413.1719 Q692.1944,414.4063 693.085,415.2266 Q693.9756,416.0469 695.5694,416.0469 Q696.5069,416.0469 697.1631,415.7969 Q697.5537,415.6406 697.9756,415.2031 Q698.2412,414.9375 698.3897,414.8594 Q698.5381,414.7813 698.7412,414.7813 Q699.0694,414.7813 699.3272,415.0391 Q699.585,415.2969 699.585,415.6406 Q699.585,415.9844 699.2412,416.3906 Q698.7412,416.9688 697.9444,417.2969 Q696.8662,417.75 695.5694,417.75 Q694.0537,417.75 692.8506,417.125 Q691.8662,416.625 691.1787,415.5547 Q690.4912,414.4844 690.4912,413.2031 L690.4912,412.0469 Q690.4912,410.7188 691.1084,409.5703 Q691.7256,408.4219 692.8194,407.8047 Q693.9131,407.1875 695.1475,407.1875 Q695.8819,407.1875 696.5303,407.3516 Q697.1787,407.5156 697.7256,407.875 Z " fill="#000000"/><text fill="#000000" font-family="sans-serif" font-size="12" lengthAdjust="spacing" textLength="72" x="708.96" y="416.9102">rdfs:Datatype</text><line style="stroke:#A80036;stroke-width:1.5;" x1="680.96" x2="782.96" y1="428" y2="428"/><line style="stroke:#A80036;stroke-width:1.5;" x1="680.96" x2="782.96" y1="436" y2="436"/></a><!--MD5=[31591eb83966fda816a78a490949f972]
class owl:NamedIndividual--><a href="http://www.w3.org/2002/07/owl#NamedIndividual" target="_top" title="http://www.w3.org/2002/07/owl#NamedIndividual" xlink:actuate="onRequest" xlink:href="http://www.w3.org/2002/07/owl#NamedIndividual" xlink:show="new" xlink:title="http://www.w3.org/2002/07/owl#NamedIndividual" xlink:type="simple"><rect codeLine="7" fill="#FEFECE" filter="url(#f8s4erdbfjj04)" height="48" id="owl:NamedIndividual" style="stroke:#A80036;stroke-width:1.5;" width="147" x="837.46" y="144"/><ellipse cx="852.46" cy="160" fill="#ADD1B2" rx="11" ry="11" style="stroke:#A80036;stroke-width:1.0;"/><path d="M855.2256,155.875 Q855.3819,155.6563 855.5694,155.5469 Q855.7569,155.4375 855.9756,155.4375 Q856.3506,155.4375 856.585,155.6953 Q856.8194,155.9531 856.8194,156.5625 L856.8194,158.0156 Q856.8194,158.625 856.585,158.8906 Q856.3506,159.1563 855.9756,159.1563 Q855.6319,159.1563 855.4287,158.9531 Q855.2256,158.7656 855.1162,158.25 Q855.0694,157.8906 854.8819,157.7031 Q854.5537,157.3281 853.9444,157.1094 Q853.335,156.8906 852.71,156.8906 Q851.9444,156.8906 851.3116,157.2188 Q850.6787,157.5469 850.1866,158.2969 Q849.6944,159.0469 849.6944,160.0781 L849.6944,161.1719 Q849.6944,162.4063 850.585,163.2266 Q851.4756,164.0469 853.0694,164.0469 Q854.0069,164.0469 854.6631,163.7969 Q855.0537,163.6406 855.4756,163.2031 Q855.7412,162.9375 855.8897,162.8594 Q856.0381,162.7813 856.2412,162.7813 Q856.5694,162.7813 856.8272,163.0391 Q857.085,163.2969 857.085,163.6406 Q857.085,163.9844 856.7412,164.3906 Q856.2412,164.9688 855.4444,165.2969 Q854.3662,165.75 853.0694,165.75 Q851.5537,165.75 850.3506,165.125 Q849.3662,164.625 848.6787,163.5547 Q847.9912,162.4844 847.9912,161.2031 L847.9912,160.0469 Q847.9912,158.7188 848.6084,157.5703 Q849.2256,156.4219 850.3194,155.8047 Q851.4131,155.1875 852.6475,155.1875 Q853.3819,155.1875 854.0303,155.3516 Q854.6787,155.5156 855.2256,155.875 Z " fill="#000000"/><text fill="#000000" font-family="sans-serif" font-size="12" lengthAdjust="spacing" textLength="115" x="866.46" y="164.9102">owl:NamedIndividual</text><line style="stroke:#A80036;stroke-width:1.5;" x1="838.46" x2="983.46" y1="176" y2="176"/><line style="stroke:#A80036;stroke-width:1.5;" x1="838.46" x2="983.46" y1="184" y2="184"/></a><!--MD5=[f071ecb23dbf121833784480fda18997]
class owl:Thing--><a href="http://www.w3.org/2002/07/owl#Thing" target="_top" title="http://www.w3.org/2002/07/owl#Thing" xlink:actuate="onRequest" xlink:href="http://www.w3.org/2002/07/owl#Thing" xlink:show="new" xlink:title="http://www.w3.org/2002/07/owl#Thing" xlink:type="simple"><rect codeLine="8" fill="#FEFECE" filter="url(#f8s4erdbfjj04)" height="75.6719" id="owl:Thing" style="stroke:#A80036;stroke-width:1.5;" width="149" x="404.46" y="7"/><ellipse cx="448.71" cy="23" fill="#A9DCDF" rx="11" ry="11" style="stroke:#A80036;stroke-width:1.0;"/><path d="M450.8975,24.7656 L446.7569,24.7656 L446.335,25.7969 L446.7569,25.7969 Q447.3663,25.7969 447.6319,26.0313 Q447.8975,26.2656 447.8975,26.6563 Q447.8975,27.0313 447.6319,27.2656 Q447.3663,27.5 446.7569,27.5 L444.46,27.5 Q443.8506,27.5 443.5928,27.2656 Q443.335,27.0313 443.335,26.6406 Q443.335,26.2656 443.6084,26.0234 Q443.8819,25.7813 444.5069,25.7969 L447.1788,19.1406 L446.0694,19.1406 Q445.46,19.1406 445.1944,18.9063 Q444.9288,18.6719 444.9288,18.2813 Q444.9288,17.9063 445.1944,17.6719 Q445.46,17.4375 446.0694,17.4375 L449.7413,17.4375 L453.1319,25.7969 Q453.7256,25.7969 453.9131,25.9375 Q454.3038,26.2031 454.3038,26.6563 Q454.3038,27.0313 454.0459,27.2656 Q453.7881,27.5 453.1788,27.5 L450.8819,27.5 Q450.2725,27.5 450.0069,27.2656 Q449.7413,27.0313 449.7413,26.6406 Q449.7413,26.2656 450.0069,26.0313 Q450.2725,25.7969 450.8819,25.7969 L451.3038,25.7969 L450.8975,24.7656 Z M450.1788,23.0625 L448.8194,19.6875 L447.4444,23.0625 L450.1788,23.0625 Z " fill="#000000"/><text fill="#000000" font-family="sans-serif" font-size="12" font-style="italic" lengthAdjust="spacing" textLength="52" x="469.21" y="27.9102">owl:Thing</text><line style="stroke:#A80036;stroke-width:1.5;" x1="405.46" x2="552.46" y1="39" y2="39"/></a><a href="http://www.w3.org/2000/01/rdf-schema#label" target="_top" title="http://www.w3.org/2000/01/rdf-schema#label" xlink:actuate="onRequest" xlink:href="http://www.w3.org/2000/01/rdf-schema#label" xlink:show="new" xlink:title="http://www.w3.org/2000/01/rdf-schema#label" xlink:type="simple"><text fill="#0000FF" font-family="sans-serif" font-size="11" lengthAdjust="spacing" text-decoration="underline" textLength="45" x="410.46" y="54.4189">rdfs:label</text></a><text fill="#000000" font-family="sans-serif" font-size="11" lengthAdjust="spacing" textLength="54" x="458.46" y="54.4189">: xsd:string</text><a href="http://www.w3.org/2000/01/rdf-schema#comment" target="_top" title="http://www.w3.org/2000/01/rdf-schema#comment" xlink:actuate="onRequest" xlink:href="http://www.w3.org/2000/01/rdf-schema#comment" xlink:show="new" xlink:title="http://www.w3.org/2000/01/rdf-schema#comment" xlink:type="simple"><text fill="#0000FF" font-family="sans-serif" font-size="11" lengthAdjust="spacing" text-decoration="underline" textLength="66" x="410.46" y="68.2549">rdfs:comment</text></a><text fill="#000000" font-family="sans-serif" font-size="11" lengthAdjust="spacing" textLength="62" x="485.46" y="68.2549">: "xsd:string"</text><line style="stroke:#A80036;stroke-width:1.5;" x1="405.46" x2="552.46" y1="74.6719" y2="74.6719"/><!--MD5=[7cf1be3a8858e2d91874fed0b1885c9d]
reverse link owl:Thing to owl:Class--><path codeLine="13" d="M384.27,49.69 C281.23,55.78 125.69,71.71 84.96,113 C6,193.05 27.94,269.09 84.96,366 C91.9,377.8 102.6,387.8 113.6,395.83 " fill="none" id="owl:Thing-backto-owl:Class" style="stroke:#A80036;stroke-width:1.0;"/><polygon fill="none" points="384.1,42.69,404.45,48.58,384.86,56.67,384.1,42.69" style="stroke:#A80036;stroke-width:1.0;"/><!--MD5=[9454734c81e4b936073575daf7be71f2]
link owl:Thing to owl:Class--><path codeLine="31" d="M404.22,71.88 C323.83,104.23 200.24,168.07 145.96,270 C125.66,308.12 136.01,359.72 145.72,391.12 " fill="none" id="owl:Thing-to-owl:Class" style="stroke:#A80036;stroke-width:1.0;"/><polygon fill="#A80036" points="147.27,395.98,148.325,386.1878,145.7404,391.2197,140.7085,388.6351,147.27,395.98" style="stroke:#A80036;stroke-width:1.0;"/><text fill="#000000" font-family="sans-serif" font-size="13" lengthAdjust="spacing" textLength="43" x="179.96" y="236.4951">rdf:type</text><!--MD5=[82a2fb0b8383334e3120e71dd411f7e5]
reverse link owl:Thing to rdf:Property--><path codeLine="14" d="M478.96,103.59 C478.96,117.8 478.96,132.22 478.96,143.72 " fill="none" id="owl:Thing-backto-rdf:Property" style="stroke:#A80036;stroke-width:1.0;"/><polygon fill="none" points="471.96,103.29,478.96,83.29,485.96,103.29,471.96,103.29" style="stroke:#A80036;stroke-width:1.0;"/><!--MD5=[5b368d0abc5ecfbb61460481483f6cd9]
reverse link owl:Thing to rdfs:Datatype--><path codeLine="15" d="M572.06,76.27 C609.58,91.96 651.17,114.2 681.96,144 C751.94,211.73 753.32,250.99 761.96,348 C762.67,355.97 764,358.26 761.96,366 C759.21,376.43 753.89,386.96 748.49,395.86 " fill="none" id="owl:Thing-backto-rdfs:Datatype" style="stroke:#A80036;stroke-width:1.0;"/><polygon fill="none" points="569.46,82.77,553.46,68.87,574.63,69.76,569.46,82.77" style="stroke:#A80036;stroke-width:1.0;"/><!--MD5=[6d98ba13494a7f56f78a55d2c327ff45]
reverse link owl:Thing to owl:NamedIndividual--><path codeLine="16" d="M573.66,57.68 C640.95,67.78 732.71,85.21 809.96,113 C832.04,120.94 855.22,133.04 873.8,143.77 " fill="none" id="owl:Thing-backto-owl:NamedIndividual" style="stroke:#A80036;stroke-width:1.0;"/><polygon fill="none" points="572.39,64.57,553.6,54.78,574.4,50.72,572.39,64.57" style="stroke:#A80036;stroke-width:1.0;"/><!--MD5=[0ecd6654d0d80bf4bfe8bbd1cb218d47]
reverse link rdf:Property to owl:DatatypeProperty--><path codeLine="17" d="M528.44,203.47 C558.85,224.65 596.97,251.21 623.77,269.88 " fill="none" id="rdf:Property-backto-owl:DatatypeProperty" style="stroke:#A80036;stroke-width:1.0;"/><polygon fill="none" points="524.43,209.21,512.02,192.03,532.44,197.72,524.43,209.21" style="stroke:#A80036;stroke-width:1.0;"/><!--MD5=[2e4ad316f8ad8308b9fc4796b7da8d5f]
reverse link rdf:Property to owl:ObjectProperty--><path codeLine="18" d="M414.99,200.99 C371.88,222.54 316.02,250.47 277.2,269.88 " fill="none" id="rdf:Property-backto-owl:ObjectProperty" style="stroke:#A80036;stroke-width:1.0;"/><polygon fill="none" points="411.88,194.72,432.89,192.03,418.14,207.24,411.88,194.72" style="stroke:#A80036;stroke-width:1.0;"/><!--MD5=[63d71481324fef0d72834c421d503af2]
link owl:ObjectProperty to owl:ObjectProperty--><path codeLine="22" d="M298.16,282.41 C317.77,282.81 332.96,286.67 332.96,294 C332.96,300.64 320.48,304.43 303.55,305.39 " fill="none" id="owl:ObjectProperty-to-owl:ObjectProperty" style="stroke:#A80036;stroke-width:1.0;"/><polygon fill="#A80036" points="298.16,305.59,307.3023,309.2532,303.1566,305.4044,307.0053,301.2587,298.16,305.59" style="stroke:#A80036;stroke-width:1.0;"/><text fill="#000000" font-family="sans-serif" font-size="13" lengthAdjust="spacing" textLength="81" x="338.96" y="299.4951">owl:inverseOF</text><!--MD5=[1698d827f6150a4cd5253850a77ebd51]
link rdf:Property to owl:Class--><path codeLine="24" d="M476.78,192.09 C472.54,224.41 460.33,283.07 425.96,318 C365.53,379.42 264.27,403.91 204.42,413.36 " fill="none" id="rdf:Property-to-owl:Class" style="stroke:#A80036;stroke-width:1.0;"/><polygon fill="#A80036" points="199.48,414.12,208.9892,416.6843,204.4202,413.349,207.7555,408.78,199.48,414.12" style="stroke:#A80036;stroke-width:1.0;"/><text fill="#000000" font-family="sans-serif" font-size="13" lengthAdjust="spacing" textLength="67" x="457.96" y="299.4951">rdfs:domain</text><!--MD5=[d6104c4ca319975ceff79b90b3692410]
link owl:ObjectProperty to owl:Class--><path codeLine="25" d="M217.03,318.03 C204.48,338.78 186.01,369.32 172.67,391.38 " fill="none" id="owl:ObjectProperty-to-owl:Class" style="stroke:#A80036;stroke-width:1.0;"/><polygon fill="#A80036" points="170.07,395.67,178.1443,390.0303,172.653,391.3888,171.2944,385.8975,170.07,395.67" style="stroke:#A80036;stroke-width:1.0;"/><text fill="#000000" font-family="sans-serif" font-size="13" lengthAdjust="spacing" textLength="57" x="198.96" y="362.4951">rdfs:range</text><!--MD5=[c4416322e8be7d7214c3727dcbc4cc99]
link owl:DatatypeProperty to rdfs:Datatype--><path codeLine="26" d="M670.45,318.1 C678.62,332.02 689.3,350.08 698.96,366 C703.99,374.29 709.53,383.25 714.62,391.41 " fill="none" id="owl:DatatypeProperty-to-rdfs:Datatype" style="stroke:#A80036;stroke-width:1.0;"/><polygon fill="#A80036" points="717.39,395.85,716.0032,386.0993,714.7362,391.6124,709.223,390.3454,717.39,395.85" style="stroke:#A80036;stroke-width:1.0;"/><text fill="#000000" font-family="sans-serif" font-size="13" lengthAdjust="spacing" textLength="57" x="699.96" y="362.4951">rdfs:range</text><!--MD5=[12de5264756f77d3b77cc0c491fe0f64]
link owl:Class to owl:Class--><path codeLine="27" d="M199.55,416.17 C218.36,415.86 234.46,417.13 234.46,420 C234.46,422.6 221.24,423.89 204.76,423.87 " fill="none" id="owl:Class-to-owl:Class" style="stroke:#A80036;stroke-width:1.0;"/><polygon fill="#A80036" points="199.55,423.83,208.5154,427.907,204.5498,423.8729,208.584,419.9073,199.55,423.83" style="stroke:#A80036;stroke-width:1.0;"/><text fill="#000000" font-family="sans-serif" font-size="13" lengthAdjust="spacing" textLength="92" x="240.46" y="425.4951">rdfs:subClassOf</text><!--MD5=[12de5264756f77d3b77cc0c491fe0f64]
link owl:Class to owl:Class--><path codeLine="28" d="M199.55,414.25 C256.24,410.29 338.46,412.21 338.46,420 C338.46,427.56 260.98,429.59 204.6,426.08 " fill="none" id="owl:Class-to-owl:Class-1" style="stroke:#A80036;stroke-width:1.0;"/><polygon fill="#A80036" points="199.55,425.75,208.2683,430.3315,204.5392,426.0779,208.7929,422.3488,199.55,425.75" style="stroke:#A80036;stroke-width:1.0;"/><text fill="#000000" font-family="sans-serif" font-size="13" lengthAdjust="spacing" textLength="91" x="344.46" y="425.4951">owl:disjointWith</text><!--MD5=[12de5264756f77d3b77cc0c491fe0f64]
link owl:Class to owl:Class--><path codeLine="29" d="M199.47,413.03 C284.16,405.02 441.46,407.35 441.46,420 C441.46,432.41 290.25,434.88 204.51,427.43 " fill="none" id="owl:Class-to-owl:Class-2" style="stroke:#A80036;stroke-width:1.0;"/><polygon fill="#A80036" points="199.47,426.97,208.0659,431.7773,204.449,427.4278,208.7985,423.8109,199.47,426.97" style="stroke:#A80036;stroke-width:1.0;"/><text fill="#000000" font-family="sans-serif" font-size="13" lengthAdjust="spacing" textLength="113" x="447.46" y="425.4951">owl:equivalentClass</text><!--MD5=[c8bbed206d81b287eb74632cc744d5c5]
link rdf:Property to rdf:Property--><path codeLine="30" d="M526.85,157.93 C545.71,157.42 561.46,160.78 561.46,168 C561.46,174.55 548.52,177.92 532.06,178.12 " fill="none" id="rdf:Property-to-rdf:Property" style="stroke:#A80036;stroke-width:1.0;"/><polygon fill="#A80036" points="526.85,178.07,535.827,182.1214,531.8499,178.0986,535.8727,174.1215,526.85,178.07" style="stroke:#A80036;stroke-width:1.0;"/><text fill="#000000" font-family="sans-serif" font-size="13" lengthAdjust="spacing" textLength="108" x="567.46" y="173.4951">rdfs:subPropertyOf</text><!--MD5=[56872e03e24a18610441c693a226263f]
link owl:NamedIndividual to owl:NamedIndividual--><path codeLine="32" d="M984.49,162.97 C1004.35,163.24 1019.46,164.92 1019.46,168 C1019.46,170.82 1006.84,172.46 989.5,172.93 " fill="none" id="owl:NamedIndividual-to-owl:NamedIndividual" style="stroke:#A80036;stroke-width:1.0;"/><polygon fill="#A80036" points="984.49,173.03,993.5682,176.8492,989.489,172.93,993.4082,168.8508,984.49,173.03" style="stroke:#A80036;stroke-width:1.0;"/><text fill="#000000" font-family="sans-serif" font-size="13" lengthAdjust="spacing" textLength="71" x="1025.46" y="173.4951">owl:sameAs</text><!--MD5=[56872e03e24a18610441c693a226263f]
link owl:NamedIndividual to owl:NamedIndividual--><path codeLine="33" d="M984.53,158.86 C1040.59,156.1 1102.46,159.14 1102.46,168 C1102.46,176.58 1044.39,179.71 989.8,177.38 " fill="none" id="owl:NamedIndividual-to-owl:NamedIndividual-1" style="stroke:#A80036;stroke-width:1.0;"/><polygon fill="#A80036" points="984.53,177.14,993.3374,181.548,989.5248,177.369,993.7037,173.5564,984.53,177.14" style="stroke:#A80036;stroke-width:1.0;"/><text fill="#000000" font-family="sans-serif" font-size="13" lengthAdjust="spacing" textLength="98" x="1108.46" y="173.4951">owl:differentFrom</text><!--MD5=[6d98e689dd8e2ee789b94aed9b61c7da]
@startuml VocabularyDiagram

class "owl:Class" [[http://www.w3.org/2000/01/rdf-schema#Class]] 
class "owl:DatatypeProperty" [[http://www.w3.org/2002/07/owl#DatatypeProperty]] 
class "owl:ObjectProperty" [[http://www.w3.org/2002/07/owl#ObjectProperty]] 
abstract class "rdf:Property" [[http://www.w3.org/1999/02/22-rdf-syntax-ns#Property]]
class "rdfs:Datatype" [[http://www.w3.org/2000/01/rdf-schema#Datatype]] 
class "owl:NamedIndividual" [[http://www.w3.org/2002/07/owl#NamedIndividual]]
abstract class "owl:Thing" [[http://www.w3.org/2002/07/owl#Thing]]{ 
  [[http://www.w3.org/2000/01/rdf-schema#label rdfs:label ]]: xsd:string
 [[http://www.w3.org/2000/01/rdf-schema#comment rdfs:comment ]]  : "xsd:string" 
}

"owl:Thing" <|- -  "owl:Class"
"owl:Thing" <|- -   "rdf:Property"
"owl:Thing" <|- -   "rdfs:Datatype"
"owl:Thing" <|- -   "owl:NamedIndividual"
"rdf:Property" <|- - "owl:DatatypeProperty"
"rdf:Property" <|- - "owl:ObjectProperty"



"owl:ObjectProperty" - -> "owl:ObjectProperty" : "owl:inverseOF"

"rdf:Property"- -> "owl:Class" : "rdfs:domain"
"owl:ObjectProperty"- -> "owl:Class" : "rdfs:range"
"owl:DatatypeProperty"- -> "rdfs:Datatype" : "rdfs:range"
"owl:Class" - -> "owl:Class" : "rdfs:subClassOf"
"owl:Class" - -> "owl:Class" : "owl:disjointWith" 
"owl:Class" - -> "owl:Class" : "owl:equivalentClass"
"rdf:Property" - -> "rdf:Property" : "rdfs:subPropertyOf"
"owl:Thing" - -> "owl:Class" : "rdf:type"
"owl:NamedIndividual" - -> "owl:NamedIndividual" : "owl:sameAs"
"owl:NamedIndividual" - -> "owl:NamedIndividual" : "owl:differentFrom"

@enduml

PlantUML version 1.2021.7(Sun May 23 14:40:07 CEST 2021)
(GPL source distribution)
Java Runtime: Java(TM) SE Runtime Environment
JVM: Java HotSpot(TM) 64-Bit Server VM
Default Encoding: Cp1252
Language: nl
Country: NL
--></g></svg>